<svg width="53" height="58" viewBox="0 0 53 58" fill="none" xmlns="http://www.w3.org/2000/svg">
<g clip-path="url(#clip0_275_1764)">
<path d="M43.7164 36.7684C43.4271 38.8811 43.141 40.9663 42.8581 43.0532C42.3984 46.4367 41.9436 49.8202 41.4839 53.2037C41.3104 54.4777 41.1352 55.7502 40.9455 57.021C40.8378 57.7403 40.5389 57.9983 39.8269 57.9983C29.02 57.9999 18.213 57.9999 7.40606 57.9983C6.69084 57.9983 6.37904 57.7419 6.281 57.0291C5.79723 53.5488 5.32471 50.0653 4.84736 46.5834C4.40216 43.3225 3.95696 40.0616 3.51015 36.7861C2.06848 36.6894 1.04468 36.0459 0.62198 34.6396C0.0771328 32.8205 1.43684 30.9658 3.33336 30.9594C7.06211 30.9449 10.7925 30.9545 14.5212 30.9545C14.7366 30.9545 14.952 30.9545 15.177 30.9545C13.8173 22.5651 18.6293 16.2949 24.1372 13.8774C21.0433 11.5373 15.3714 10.6165 10.4903 13.2436C5.82134 15.7562 2.10223 21.6056 3.86214 28.7661C3.27872 28.9338 2.69208 29.1031 1.95115 29.316C1.78882 28.2258 1.53327 27.1921 1.49792 26.1518C1.28576 19.7832 3.91517 14.9418 9.35561 11.6357C9.56295 11.5099 9.72849 11.2358 9.81046 10.9955C11.7552 5.24772 15.6575 1.61425 21.5641 0.336977C28.5635 -1.17737 35.7301 2.61092 38.6488 9.20696C38.7501 9.43596 38.8513 9.66658 38.9944 9.99235C39.1712 9.71658 39.2997 9.52144 39.4219 9.32307C40.9198 6.92012 42.4033 4.50909 43.9189 2.11904C44.9539 0.485348 46.8649 -0.285534 48.7775 0.0982939C50.6837 0.480509 52.045 1.81584 52.413 3.7366C52.6831 5.14289 52.3102 6.40727 51.3941 7.50231C48.493 10.9681 45.5872 14.429 42.6829 17.8931C42.5688 18.0302 42.4611 18.1721 42.3342 18.3334C43.4464 19.7493 44.3143 21.2798 44.8945 22.9651C45.7977 25.5858 45.9761 28.2613 45.4956 30.99C45.4618 31.1771 45.5309 31.4658 45.6627 31.5867C46.6335 32.4834 46.9501 33.5591 46.5579 34.8106C46.1947 35.9669 45.1532 36.6749 43.7148 36.7716L43.7164 36.7684ZM40.0069 36.7652C39.7835 38.644 38.554 39.7455 36.8327 39.6391C35.5035 39.5568 34.0731 38.3311 34.1936 36.4733C34.2434 35.7121 34.2048 34.9444 34.2016 34.18C34.1984 33.3736 33.848 32.8995 33.2518 32.8882C32.6507 32.8769 32.2794 33.3543 32.273 34.1493C32.2714 34.3913 32.2794 34.6332 32.2698 34.8735C32.2215 36.0685 31.6574 36.949 30.5854 37.4458C29.5327 37.9344 28.5314 37.7635 27.5815 37.0942C27.3131 36.9055 26.945 36.7587 26.622 36.7587C19.8058 36.7394 12.9895 36.7442 6.17171 36.7442C5.95474 36.7442 5.73776 36.7442 5.47257 36.7442C6.35333 43.2241 7.22605 49.6379 8.09716 56.0453H39.1262C39.9989 49.617 40.87 43.2048 41.7459 36.7636H40.0069V36.7652ZM22.5027 30.9545C24.0858 30.9545 25.6705 30.9529 27.2536 30.9545C28.0926 30.9562 28.4172 31.2803 28.4221 32.1141C28.4269 32.9785 28.4108 33.8445 28.4285 34.709C28.4414 35.3266 28.8351 35.7556 29.3575 35.775C29.8895 35.7927 30.3186 35.3347 30.3507 34.7025C30.3636 34.4622 30.3523 34.2203 30.3539 33.9784C30.3604 32.2254 31.5786 30.9513 33.2469 30.9545C34.8542 30.9578 36.1142 32.2689 36.1239 33.9574C36.1287 34.8622 36.1062 35.7685 36.1319 36.6733C36.1528 37.4199 36.7635 37.8731 37.3791 37.6393C37.8806 37.449 38.0557 37.0506 38.0541 36.5442C38.0541 35.096 38.0541 33.6478 38.0541 32.1996C38.0541 31.2497 38.3531 30.9562 39.319 30.9562C40.5421 30.9562 41.7652 30.9433 42.9867 30.9642C43.3773 30.9707 43.5396 30.8691 43.6071 30.4514C43.861 28.8886 43.8642 27.3404 43.6087 25.7745C42.4435 18.6301 35.5356 13.5613 28.4414 14.6693C20.8263 15.8578 15.8118 22.8329 17.0879 30.4304C17.1635 30.8771 17.3371 30.9707 17.7485 30.9658C19.3316 30.9432 20.9164 30.9562 22.4995 30.9578L22.5027 30.9545ZM36.6301 13.7887C36.7893 13.5403 36.966 13.1984 37.2039 12.9065C37.6041 12.4147 37.6025 11.9308 37.3952 11.347C35.6497 6.41856 32.2553 3.2673 27.1572 2.26257C22.0012 1.24494 17.6408 2.91088 14.1982 6.9056C13.3238 7.92 12.6392 9.06504 12.1634 10.3133C12.2293 10.3633 12.2486 10.3875 12.2599 10.3842C12.3965 10.352 12.5315 10.3165 12.6665 10.281C17.4448 9.00859 21.8662 9.79076 25.9036 12.6485C26.3616 12.9727 26.7409 13.0259 27.2649 12.913C29.1437 12.5098 31.0451 12.4421 32.9303 12.8307C34.1566 13.0823 35.3572 13.4565 36.6301 13.7903V13.7887ZM41.0339 16.8239C42.3438 15.2627 43.6601 13.6952 44.9748 12.1276C46.6383 10.1423 48.3291 8.17965 49.9572 6.16536C51.2301 4.58973 50.4056 2.42868 48.4271 2.01905C47.2185 1.76908 46.1401 2.23515 45.4506 3.33664C43.1538 7.01204 40.8652 10.6939 38.5749 14.3741C38.4929 14.5064 38.4286 14.6515 38.3659 14.7725C39.2676 15.4643 40.1371 16.1336 41.0355 16.8222L41.0339 16.8239ZM26.4757 32.8817C26.2507 32.8817 26.0739 32.8817 25.8971 32.8817C18.5184 32.8817 11.138 32.8817 3.75927 32.8817C3.65963 32.8817 3.55837 32.8769 3.45872 32.885C2.85602 32.9285 2.43332 33.3381 2.44296 33.8655C2.4526 34.3703 2.85923 34.7654 3.42819 34.8154C3.56801 34.8267 3.70945 34.8202 3.84928 34.8202C11.1878 34.8202 18.528 34.8202 25.8666 34.8202C26.0611 34.8202 26.2555 34.8202 26.4757 34.8202V32.8834V32.8817ZM40.0037 34.8138C41.3104 34.8138 42.5704 34.8315 43.8289 34.8057C44.3882 34.7944 44.7948 34.3364 44.7852 33.8365C44.7771 33.3527 44.3914 32.9108 43.861 32.8979C42.5849 32.8688 41.3072 32.8882 40.0037 32.8882V34.8138Z" fill="#FE724C"/>
<path d="M6.2859 21.3073H8.20653C8.20653 21.8653 8.20171 22.4168 8.20653 22.97C8.21456 23.7167 8.58744 24.1828 9.16765 24.1844C9.74946 24.1844 10.1239 23.7183 10.1336 22.9732C10.14 22.4717 10.14 21.9701 10.1448 21.4685C10.1448 21.4331 10.1706 21.3976 10.1963 21.3282H12.1024C12.0446 22.2507 12.1073 23.2038 11.9015 24.0957C11.5833 25.4681 10.1706 26.2922 8.75298 26.1051C7.3772 25.9245 6.30519 24.6988 6.28751 23.2764C6.27947 22.6378 6.28751 21.9991 6.28751 21.3057L6.2859 21.3073Z" fill="#FE724C"/>
<path d="M15.878 15.5337V17.3803H14.0281V15.5337H15.878Z" fill="#FE724C"/>
<path d="M26.5017 42.5775H28.4223C28.4223 43.163 28.4159 43.721 28.424 44.2773C28.4352 44.9757 28.8161 45.4321 29.3786 45.4369C29.9428 45.4417 30.3365 44.987 30.3494 44.2919C30.359 43.7339 30.351 43.1759 30.351 42.5824H32.3327C32.2604 43.5371 32.3183 44.5354 32.0804 45.4563C31.7364 46.79 30.2803 47.5721 28.9142 47.3528C27.5561 47.1351 26.521 45.9288 26.5033 44.5354C26.4953 43.8967 26.5033 43.2581 26.5033 42.5759L26.5017 42.5775Z" fill="#FE724C"/>
<path d="M11.5721 53.0409L9.64666 53.3199C9.22235 50.196 8.80447 47.1286 8.37695 43.987C9.02788 43.8967 9.63219 43.8145 10.3024 43.7209C10.7267 46.8416 11.1446 49.909 11.5721 53.0409Z" fill="#FE724C"/>
<path d="M8.09079 41.8567C7.99115 41.1229 7.90757 40.4907 7.81274 39.7892C8.45563 39.6924 9.05673 39.6005 9.71569 39.5005C9.81855 40.1891 9.91499 40.8342 10.0259 41.5745C9.39264 41.6664 8.77868 41.7551 8.09079 41.8551V41.8567Z" fill="#FE724C"/>
<path d="M37.0883 20.3526H39.054C39.0025 21.2718 39.0652 22.1878 38.8756 23.0458C38.5557 24.4908 37.1285 25.3536 35.6724 25.1359C34.2934 24.9295 33.2551 23.7119 33.2407 22.2765C33.2342 21.6556 33.2407 21.0347 33.2407 20.3284C33.5798 20.3284 33.8916 20.3284 34.2018 20.3284C34.512 20.3284 34.7948 20.3284 35.1613 20.3284C35.1613 20.9283 35.1548 21.4831 35.1613 22.0395C35.1709 22.7458 35.5358 23.199 36.0967 23.2184C36.6769 23.2393 37.0771 22.7652 37.0867 22.033C37.0948 21.4928 37.0867 20.9541 37.0867 20.3526H37.0883Z" fill="#FE724C"/>
<path d="M27.4885 20.2801V18.4287H29.3352V20.2801H27.4885Z" fill="#FE724C"/>
<path d="M22.6748 24.1441V22.2959H24.5424V24.1441H22.6748Z" fill="#FE724C"/>
<path d="M22.686 3.93677H24.5247V5.79301H22.686V3.93677Z" fill="#FE724C"/>
<path d="M28.4382 9.65857V7.82007H30.3026V9.65857H28.4382Z" fill="#FE724C"/>
</g>
<defs>
<clipPath id="clip0_275_1764">
<rect width="52" height="58" fill="white" transform="translate(0.5)"/>
</clipPath>
</defs>
</svg>
