<svg width="43" height="42" viewBox="0 0 43 42" fill="none" xmlns="http://www.w3.org/2000/svg">
<g clip-path="url(#clip0_215_1416)">
<path d="M10.0142 17.5498C10.2464 17.3804 10.4697 17.0929 10.7287 17.0595C11.1463 17.0037 11.5839 17.1152 12.0148 17.1575C11.9121 17.5788 11.9389 18.1137 11.6844 18.4034C10.7086 19.5155 9.49397 20.4405 8.63879 21.6284C4.44999 27.4454 6.07996 35.7631 12.1131 39.5898C12.5797 39.8863 13.2072 40.0646 13.7609 40.069C18.4834 40.1069 23.2081 40.1069 27.9305 40.069C28.482 40.0646 29.1072 39.8707 29.5716 39.572C36.6408 35.0321 37.3419 24.8957 31.0007 19.2325C30.668 18.9361 30.237 18.7132 30.0026 18.3566C29.7994 18.049 29.8128 17.5988 29.7302 17.2132C30.1589 17.1598 30.6948 16.9168 30.9917 17.0884C31.6817 17.4896 32.2555 18.0914 32.9343 18.6597C34.4303 16.3307 36.6989 15.2765 39.2443 14.6324C39.9342 14.4585 40.3674 14.5811 40.7247 15.2029C41.2606 16.1345 41.8634 17.026 42.4127 17.951C42.9508 18.8581 42.7811 19.2726 41.7875 19.5846C39.3783 20.3424 38.7888 21.1916 39.1014 23.6632C39.2912 25.1676 39.5078 26.6765 39.8583 28.1497C40.4545 30.6548 39.1639 33.726 36.2836 35.4511C35.6204 35.8478 35.0198 36.4495 34.571 37.0847C33.2804 38.9034 31.7241 40.4123 29.786 41.5066C29.3908 41.7294 28.8839 41.8565 28.4284 41.8587C23.3711 41.8832 18.3114 41.8877 13.2541 41.8543C12.7338 41.8498 12.1533 41.6737 11.7022 41.404C8.96925 39.7771 7.04008 37.4503 5.71824 34.5596C4.98587 32.9571 4.09496 31.4237 3.21523 29.8948C2.64362 28.9008 1.96037 27.9692 1.32625 27.0086C-0.564969 24.1424 -0.410903 20.7748 1.67903 18.4859C3.3157 16.6939 6.50866 15.3946 10.0165 17.552L10.0142 17.5498ZM8.69238 18.8269C6.81679 17.786 4.87869 17.951 3.39162 19.1946C1.90902 20.4338 1.18334 22.7316 1.96707 24.5258C2.5878 25.9477 3.52782 27.2315 4.32495 28.5754C4.75812 24.7977 6.12461 21.5927 8.69238 18.8269V18.8269ZM40.4947 18.1025C40.2267 17.6612 39.9968 17.1932 39.6775 16.7965C39.5301 16.6137 39.1684 16.4287 38.9741 16.4844C37.2749 16.9725 35.7097 17.6857 34.6268 19.1901C34.2003 19.7808 34.1825 20.2176 34.6089 20.8639C36.556 23.8081 37.4201 27.0398 36.9355 30.5746C36.8261 31.3747 36.6788 32.1681 36.5336 33.0596C38.0497 31.6087 38.5209 30.1845 38.1658 28.2634C37.9582 27.1356 37.7014 26.0168 37.5228 24.8846C36.9668 21.3231 37.4335 19.6493 40.4925 18.1003L40.4947 18.1025Z" fill="#FE724C"/>
<path d="M12.8969 14.3872C13.6516 11.8174 15.6701 10.7877 17.8985 10.0456C17.2978 7.66528 17.5948 6.45061 18.968 5.57248C20.0956 4.85037 21.5402 4.92615 22.6098 5.7597C23.8334 6.71583 24.079 8.04416 23.4114 9.90294C24.4541 10.4624 25.566 10.9103 26.4927 11.6035C27.1737 12.1139 27.7453 12.885 28.1159 13.6584C28.4017 14.2512 28.6876 14.4273 29.2703 14.3827C29.6008 14.356 29.9826 14.3025 30.2572 14.4362C30.5386 14.5744 30.878 14.9132 30.8958 15.1828C30.9159 15.4614 30.6435 15.8782 30.3823 16.0298C30.0898 16.1969 29.6655 16.159 29.2993 16.159C23.5431 16.1657 17.7846 16.1635 12.0283 16.159C11.7314 16.159 11.3652 16.2482 11.1553 16.1078C10.8293 15.8916 10.4006 15.5105 10.4073 15.2073C10.414 14.9265 10.8963 14.5075 11.2379 14.4206C11.7559 14.2869 12.3365 14.3849 12.8992 14.3849L12.8969 14.3872ZM26.582 14.3292C25.9836 12.0537 22.4088 11.0463 18.6867 11.6035C16.3846 11.9467 14.9668 13.0366 14.9176 14.3292H26.5798H26.582ZM20.5756 9.64217C21.5224 9.61097 22.0069 9.11173 22.1007 8.27595C22.19 7.48475 21.4621 6.77824 20.6359 6.82058C19.7651 6.86293 19.2605 7.33988 19.256 8.22246C19.2516 9.11619 19.7942 9.53742 20.5756 9.64217V9.64217Z" fill="#FE724C"/>
<path d="M41.5777 12.3256C41.1222 11.1734 40.7739 9.96315 40.1866 8.88221C39.0926 6.86965 38.0766 4.8727 38.4651 2.47903C38.512 2.18706 38.4875 1.82155 38.6549 1.62987C38.9296 1.31785 39.3359 1.11949 39.6843 0.874329C39.8807 1.22424 40.3095 1.63433 40.238 1.91292C39.6284 4.26202 40.6087 6.18766 41.7295 8.10215C42.5267 9.46168 43.1005 10.8948 42.9844 12.5195C42.9397 13.1413 42.8727 13.7542 42.0511 13.7654C41.4862 13.7721 41.2874 13.3687 41.5777 12.3301V12.3256Z" fill="#FE724C"/>
<path d="M9.1748 28.7692C9.54322 25.6958 10.5904 22.6937 12.6714 20.1128C13.0555 19.6358 13.5735 19.2035 14.1228 18.9449C14.3907 18.8179 14.9958 19.0296 15.2124 19.2859C15.3598 19.462 15.228 20.1373 15.0025 20.3223C12.1914 22.5978 11.3719 25.7894 10.8561 29.1236C10.7624 29.7231 10.9499 30.53 9.98756 30.4854C8.95599 30.4386 9.23509 29.5939 9.1748 28.7692V28.7692Z" fill="#FE724C"/>
</g>
<defs>
<clipPath id="clip0_215_1416">
<rect width="43" height="41" fill="white" transform="translate(0 0.87207)"/>
</clipPath>
</defs>
</svg>
