<svg width="21" height="37" viewBox="0 0 21 37" fill="none" xmlns="http://www.w3.org/2000/svg">
<g clip-path="url(#clip0_215_889)">
<path d="M10.5036 34.529C10.1002 34.529 9.77014 34.2048 9.77014 33.8086V27.1376C9.77014 26.7414 10.1002 26.4172 10.5036 26.4172C10.9071 26.4172 11.2371 26.7414 11.2371 27.1376V33.8086C11.2371 34.2048 10.9071 34.529 10.5036 34.529Z" fill="#FE724C"/>
<path d="M10.5036 37C7.75303 37 3.10266 36.4453 3.10266 34.3561C3.10266 32.7064 6.01464 32.094 7.75303 31.8779C8.15645 31.8275 8.5232 32.1085 8.57454 32.5047C8.62589 32.9009 8.33982 33.2611 7.9364 33.3115C5.77992 33.5853 4.77503 34.1184 4.58432 34.3633C4.89973 34.8028 7.08555 35.5592 10.5036 35.5592C13.9217 35.5592 16.1076 34.8028 16.423 34.3633C16.2322 34.1184 15.242 33.5925 13.1076 33.3187C13.0929 33.3187 13.0855 33.3187 13.0709 33.3187C12.7041 33.2755 12.4327 32.9585 12.4327 32.6055C12.4327 32.5767 12.4327 32.5479 12.4327 32.5119C12.4841 32.1157 12.8508 31.8419 13.2543 31.8851C14.9926 32.1012 17.9046 32.7136 17.9046 34.3633C17.9046 36.4453 13.2543 37.0072 10.5036 37.0072V37Z" fill="#FE724C"/>
<path d="M10.5036 5.28055C7.75303 5.28055 3.10266 4.72584 3.10266 2.63667C3.10266 2.24044 3.43273 1.91626 3.83616 1.91626C4.23958 1.91626 4.55498 2.22604 4.56965 2.60785C4.80437 3.0473 7.00486 3.83974 10.5036 3.83974C14.0024 3.83974 16.1076 3.08332 16.423 2.64387C16.2322 2.39893 15.242 1.87304 13.1076 1.59928C13.0929 1.59928 13.0855 1.59928 13.0709 1.59928C12.7041 1.54886 12.4327 1.23908 12.4327 0.886083C12.4327 0.857267 12.4327 0.828451 12.4327 0.79243C12.4841 0.396208 12.8508 0.122454 13.2543 0.165678C14.9926 0.3818 17.9046 0.994144 17.9046 2.64387C17.9046 4.72584 13.2543 5.28776 10.5036 5.28776V5.28055Z" fill="#FE724C"/>
<path d="M4.61368 14.9052C0.931531 14.9052 0.381409 13.3779 0.381409 12.463C0.381409 11.5481 0.931531 10.0208 4.61368 10.0208C7.35696 10.0208 10.7017 11.7498 10.8411 11.8219C11.0831 11.9443 11.2298 12.1893 11.2298 12.4558C11.2298 12.7224 11.0831 12.9673 10.8411 13.0898C10.7017 13.1618 7.35696 14.8908 4.61368 14.8908V14.9052ZM4.61368 11.4689C3.96087 11.4689 1.8484 11.5409 1.8484 12.4702C1.8484 13.3995 3.96821 13.4716 4.61368 13.4716C5.98532 13.4716 7.61368 12.9313 8.74327 12.4702C7.60635 12.0092 5.98532 11.4689 4.61368 11.4689Z" fill="#FE724C"/>
<path d="M10.5037 13.1834C10.2396 13.1834 9.9902 13.0465 9.85817 12.8016C9.66747 12.4486 9.80683 12.0164 10.1589 11.8291C10.2983 11.757 13.643 10.028 16.3863 10.028C20.0684 10.028 20.6186 11.5553 20.6186 12.4702C20.6186 12.8664 20.2885 13.1906 19.8851 13.1906C19.4816 13.1906 19.1516 12.8664 19.1516 12.4702C19.1516 11.5409 17.0318 11.4689 16.3863 11.4689C14.0098 11.4689 10.8777 13.0898 10.8484 13.1042C10.7384 13.1618 10.621 13.1906 10.5037 13.1906V13.1834Z" fill="#FE724C"/>
<path d="M10.5037 25.4231C7.81172 25.4231 5.12713 24.4145 3.08067 22.4046C0.330059 19.7031 -0.674831 15.7553 0.462089 12.1028L3.1907 2.44939C3.30072 2.06757 3.70414 1.84425 4.0929 1.9451C4.48165 2.05316 4.70903 2.44939 4.60634 2.8312L1.8704 12.499C0.887516 15.6616 1.75304 19.0619 4.1149 21.3816C5.82395 23.0602 8.09045 23.9823 10.5037 23.9823C12.9169 23.9823 15.1834 23.0602 16.8924 21.3816C19.2543 19.0619 20.1198 15.6688 19.1442 12.5206V12.499H19.1369L16.401 2.824C16.2909 2.44218 16.5183 2.04596 16.9144 1.9379C17.3032 1.82984 17.7066 2.05316 17.8166 2.44218L20.5526 12.1028C21.6821 15.7553 20.6772 19.7031 17.934 22.4046C15.8875 24.4145 13.1956 25.4231 10.511 25.4231H10.5037Z" fill="#FE724C"/>
<path d="M3.82883 3.3859C3.42541 3.3859 3.09534 3.04011 3.09534 2.64389C3.10267 0.554712 7.75304 0 10.5036 0C10.9071 0 11.2371 0.324182 11.2371 0.720405C11.2371 1.11663 10.9071 1.44081 10.5036 1.44081C6.9682 1.44081 4.76037 2.24766 4.56233 2.67991C4.56233 3.07613 4.23959 3.3787 3.82883 3.3787V3.3859Z" fill="#FE724C"/>
</g>
<defs>
<clipPath id="clip0_215_889">
<rect width="21" height="37" fill="white"/>
</clipPath>
</defs>
</svg>
