<svg width="19" height="38" viewBox="0 0 19 38" fill="none" xmlns="http://www.w3.org/2000/svg">
<g clip-path="url(#clip0_215_976)">
<path d="M12.3746 20.1136C12.0826 20.1136 11.823 19.9187 11.7451 19.6262L10.2526 13.7325C10.1877 13.4856 10.0645 13.2581 9.88925 13.0762L6.3527 9.70369C6.26186 9.61921 6.20346 9.50875 6.17101 9.39178L5.04191 4.9536C4.95106 4.60271 5.1652 4.25181 5.50912 4.16084C5.85953 4.06986 6.20994 4.2843 6.30079 4.6287L7.38447 8.89143L10.8042 12.1535C11.1546 12.5174 11.3947 12.9462 11.5115 13.4141L13.004 19.3078C13.0948 19.6587 12.8807 20.0096 12.5368 20.1006C12.4849 20.1136 12.4265 20.1201 12.3746 20.1201V20.1136Z" fill="#FE724C"/>
<path d="M3.80262 19.7952C3.51061 19.7952 3.25104 19.6002 3.17318 19.3078L2.27119 15.7664C2.15439 15.2985 2.16088 14.8112 2.28417 14.3498L3.73772 9.82064L2.65405 5.5579C2.5632 5.20701 2.77734 4.85611 3.12126 4.76514C3.47167 4.68067 3.82208 4.8886 3.91293 5.233L5.04203 9.67118C5.07447 9.78815 5.06798 9.91161 5.02905 10.0286L3.52359 14.7072C3.46518 14.9281 3.45869 15.188 3.52359 15.435L4.42557 18.9764C4.51641 19.3273 4.30227 19.6782 3.95835 19.7692C3.90644 19.7822 3.84804 19.7887 3.79613 19.7887L3.80262 19.7952Z" fill="#FE724C"/>
<path d="M2.94605 4.68072C2.65405 4.68072 2.39448 4.48578 2.31661 4.19336L1.81047 2.19196C1.71962 1.84106 1.93376 1.49017 2.27768 1.39919L4.65917 0.794873C4.82788 0.749386 5.00309 0.775378 5.15234 0.866351C5.30159 0.957324 5.40541 1.10028 5.45083 1.26273L5.95698 3.26414C6.00241 3.43309 5.97645 3.60854 5.8856 3.75799C5.79476 3.90745 5.652 4.01142 5.48977 4.0569L3.10828 4.66122C3.05637 4.67422 2.99797 4.68072 2.94605 4.68072V4.68072ZM3.22508 2.49737L3.41327 3.23815L4.53588 2.95223L4.34769 2.21145L3.22508 2.49737V2.49737Z" fill="#FE724C"/>
<path d="M16.5667 36.3718C16.5667 36.3718 16.5213 36.3718 16.5018 36.3718C16.1449 36.3328 15.8853 36.0209 15.9178 35.6635L17.7088 17.7419C17.7477 17.3845 18.0592 17.1245 18.4161 17.157C18.773 17.196 19.0325 17.5079 19.0001 17.8653L17.2091 35.787C17.1767 36.1249 16.8911 36.3718 16.5667 36.3718V36.3718Z" fill="#FE724C"/>
<path d="M2.43994 36.3717C2.109 36.3717 1.82997 36.1248 1.79753 35.7869L5.25759e-05 17.8587C-0.0323928 17.5013 0.22717 17.1829 0.584069 17.1504C0.940968 17.118 1.25893 17.3779 1.29138 17.7353L3.08236 35.6569C3.11481 36.0143 2.85524 36.3327 2.49834 36.3652C2.47888 36.3652 2.45292 36.3652 2.43345 36.3652L2.43994 36.3717Z" fill="#FE724C"/>
<path d="M9.5 20.2047C7.91667 20.2047 0 20.0942 0 17.7939C0 17.2806 0.356899 16.8517 1.0707 16.5203C1.39515 16.3709 1.78449 16.5073 1.93374 16.8322C2.08299 17.1571 1.94672 17.547 1.62227 17.6965C1.5444 17.7354 1.47951 17.7679 1.4276 17.8004C2.14788 18.2358 4.89276 18.9051 9.5 18.9051C14.1072 18.9051 16.8586 18.2358 17.5789 17.8004C17.1766 17.56 16.002 17.1311 13.4454 16.8712C13.0885 16.8322 12.8289 16.5138 12.8678 16.1564C12.9068 15.799 13.2182 15.5391 13.5816 15.5781C19.013 16.1304 19.013 17.3846 19.013 17.7939C19.013 20.0878 11.0963 20.2047 9.51298 20.2047H9.5Z" fill="#FE724C"/>
<path d="M9.49993 37.7755C7.68948 37.7755 1.78442 37.626 1.78442 35.7221C1.78442 35.3647 2.07643 35.0723 2.43333 35.0723C2.73832 35.0723 2.99788 35.2867 3.06277 35.5726C3.47807 35.8975 5.71031 36.4758 9.49344 36.4758C13.2766 36.4758 15.5153 35.8975 15.9241 35.5726C15.989 35.2867 16.2486 35.0723 16.5535 35.0723C16.9104 35.0723 17.2025 35.3647 17.2025 35.7221C17.2025 37.626 11.2974 37.7755 9.48695 37.7755H9.49993Z" fill="#FE724C"/>
<path d="M7.02117 23.1158C6.98873 23.1158 6.94979 23.1158 6.91735 23.1093C2.77732 22.4465 0 20.3086 0 17.7938C0 17.4365 0.292008 17.144 0.648907 17.144C1.00581 17.144 1.29781 17.4365 1.29781 17.7938C1.29781 19.5873 3.74419 21.2833 7.125 21.8227C7.4819 21.8811 7.72199 22.2125 7.66359 22.5699C7.61168 22.8883 7.33914 23.1158 7.02117 23.1158Z" fill="#FE724C"/>
<path d="M15.6321 29.2238H8.80565C8.44875 29.2238 8.15674 28.9314 8.15674 28.574V19.5482C8.15674 19.1908 8.44875 18.8984 8.80565 18.8984C9.16254 18.8984 9.45455 19.1908 9.45455 19.5482V27.9242H14.9832V19.1388C14.9832 18.7814 15.2752 18.489 15.6321 18.489C15.989 18.489 16.2811 18.7814 16.2811 19.1388V28.574C16.2811 28.9314 15.989 29.2238 15.6321 29.2238Z" fill="#FE724C"/>
</g>
<defs>
<clipPath id="clip0_215_976">
<rect width="19" height="37" fill="white" transform="translate(0 0.775391)"/>
</clipPath>
</defs>
</svg>
