<svg width="29" height="34" viewBox="0 0 29 34" fill="none" xmlns="http://www.w3.org/2000/svg">
<g clip-path="url(#clip0_215_1421)">
<path d="M18.3415 29.6905H9.25103C6.59696 29.6905 4.43677 27.4945 4.43677 24.7966V10.8272C4.43677 10.4333 4.75196 10.1129 5.13943 10.1129H22.4531C22.8406 10.1129 23.1558 10.4333 23.1558 10.8272V24.7966C23.1558 27.4945 20.9956 29.6905 18.3415 29.6905ZM5.8421 11.5415V24.7966C5.8421 26.7068 7.3719 28.2619 9.25103 28.2619H18.3415C20.2206 28.2619 21.7504 26.7068 21.7504 24.7966V11.5415H5.8421Z" fill="#FE724C"/>
<path d="M22.8868 33.8721H4.81426C2.16019 33.8721 0 31.6762 0 28.9782C0 28.5843 0.315196 28.2639 0.702665 28.2639H26.9984C27.3859 28.2639 27.7011 28.5843 27.7011 28.9782C27.7011 31.6762 25.5409 33.8721 22.8868 33.8721V33.8721ZM1.4776 29.6904C1.80284 31.2598 3.17605 32.4415 4.81426 32.4415H22.8868C24.525 32.4415 25.8982 31.2598 26.2235 29.6904H1.4776Z" fill="#FE724C"/>
<path d="M23.9147 22.3211H22.4532C22.0657 22.3211 21.7505 22.0007 21.7505 21.6068V12.6966C21.7505 12.3027 22.0657 11.9823 22.4532 11.9823H23.9147C26.7193 11.9823 29 14.3007 29 17.1517C29 20.0027 26.7193 22.3211 23.9147 22.3211V22.3211ZM23.1558 20.8925H23.9147C25.9444 20.8925 27.5947 19.215 27.5947 17.1517C27.5947 15.0884 25.9444 13.4109 23.9147 13.4109H23.1558V20.8925V20.8925Z" fill="#FE724C"/>
<path d="M10.9837 8.24146C10.5962 8.24146 10.281 7.92106 10.281 7.52718V4.55779C10.281 4.16391 10.5962 3.84351 10.9837 3.84351C11.3711 3.84351 11.6863 4.16391 11.6863 4.55779V7.52718C11.6863 7.92106 11.3711 8.24146 10.9837 8.24146Z" fill="#FE724C"/>
<path d="M13.8506 8.24146C13.4631 8.24146 13.1479 7.92105 13.1479 7.52717V1.58636C13.1479 1.19248 13.4631 0.87207 13.8506 0.87207C14.2381 0.87207 14.5533 1.19248 14.5533 1.58636V7.52717C14.5533 7.92105 14.2381 8.24146 13.8506 8.24146Z" fill="#FE724C"/>
<path d="M16.3941 8.24146C16.0066 8.24146 15.6914 7.92106 15.6914 7.52718V4.55779C15.6914 4.16391 16.0066 3.84351 16.3941 3.84351C16.7815 3.84351 17.0967 4.16391 17.0967 4.55779V7.52718C17.0967 7.92106 16.7815 8.24146 16.3941 8.24146Z" fill="#FE724C"/>
<path d="M16.3941 16.1619C16.0066 16.1619 15.6914 15.8415 15.6914 15.4476V10.8272C15.6914 10.4333 16.0066 10.1129 16.3941 10.1129C16.7815 10.1129 17.0967 10.4333 17.0967 10.8272V15.4476C17.0967 15.8415 16.7815 16.1619 16.3941 16.1619Z" fill="#FE724C"/>
<path d="M19.0583 22.719H13.7281C13.3406 22.719 13.0254 22.3986 13.0254 22.0047V17.1843C13.0254 16.9945 13.0997 16.8129 13.2322 16.6802L14.9427 14.9415C15.0752 14.8068 15.2538 14.7313 15.4385 14.7313H17.3458C17.5325 14.7313 17.7112 14.8068 17.8417 14.9415L19.5521 16.6802C19.6847 16.8149 19.7589 16.9966 19.7589 17.1843V22.0047C19.7589 22.3986 19.4437 22.719 19.0563 22.719H19.0583ZM14.4307 21.2904H18.3556V17.4802L17.0567 16.1598H15.7317L14.4327 17.4802V21.2904H14.4307Z" fill="#FE724C"/>
<path d="M7.79153 15.47C7.40406 15.47 7.08887 15.1496 7.08887 14.7557V13.5598C7.08887 13.1659 7.40406 12.8455 7.79153 12.8455C8.179 12.8455 8.4942 13.1659 8.4942 13.5598V14.7557C8.4942 15.1496 8.179 15.47 7.79153 15.47Z" fill="#FE724C"/>
<path d="M7.79153 24.0537C7.40406 24.0537 7.08887 23.7333 7.08887 23.3394V17.7762C7.08887 17.3823 7.40406 17.0619 7.79153 17.0619C8.179 17.0619 8.4942 17.3823 8.4942 17.7762V23.3394C8.4942 23.7333 8.179 24.0537 7.79153 24.0537Z" fill="#FE724C"/>
</g>
<defs>
<clipPath id="clip0_215_1421">
<rect width="29" height="33" fill="white" transform="translate(0 0.87207)"/>
</clipPath>
</defs>
</svg>
