<svg width="19" height="37" viewBox="0 0 19 37" fill="none" xmlns="http://www.w3.org/2000/svg">
<g clip-path="url(#clip0_215_873)">
<path d="M12.3746 19.3384C12.0826 19.3384 11.823 19.1435 11.7451 18.8511L10.2526 12.9573C10.1877 12.7104 10.0645 12.483 9.88925 12.301L6.3527 8.92854C6.26186 8.84407 6.20346 8.7336 6.17101 8.61664L5.04191 4.17845C4.95106 3.82756 5.1652 3.47666 5.50912 3.38569C5.85953 3.29472 6.20994 3.50915 6.30079 3.85355L7.38447 8.11628L10.8042 11.3783C11.1546 11.7422 11.3947 12.1711 11.5115 12.6389L13.004 18.5327C13.0948 18.8836 12.8807 19.2345 12.5368 19.3255C12.4849 19.3384 12.4265 19.3449 12.3746 19.3449V19.3384Z" fill="#FE724C"/>
<path d="M3.80262 19.02C3.51061 19.02 3.25104 18.8251 3.17318 18.5327L2.27119 14.9912C2.15439 14.5234 2.16088 14.036 2.28417 13.5746L3.73772 9.04549L2.65405 4.78276C2.5632 4.43186 2.77734 4.08097 3.12126 3.98999C3.47167 3.90552 3.82208 4.11346 3.91293 4.45785L5.04203 8.89604C5.07447 9.013 5.06798 9.13646 5.02905 9.25343L3.52359 13.932C3.46518 14.153 3.45869 14.4129 3.52359 14.6598L4.42557 18.2013C4.51641 18.5522 4.30227 18.9031 3.95835 18.994C3.90644 19.007 3.84804 19.0135 3.79613 19.0135L3.80262 19.02Z" fill="#FE724C"/>
<path d="M2.94605 3.90533C2.65405 3.90533 2.39448 3.71039 2.31661 3.41797L1.81047 1.41657C1.71962 1.06567 1.93376 0.714775 2.27768 0.623802L4.65917 0.019482C4.82788 -0.0260044 5.00309 -1.21565e-05 5.15234 0.0909608C5.30159 0.181934 5.40541 0.324891 5.45083 0.487343L5.95698 2.48875C6.00241 2.6577 5.97645 2.83315 5.8856 2.9826C5.79476 3.13206 5.652 3.23603 5.48977 3.28151L3.10828 3.88583C3.05637 3.89883 2.99797 3.90533 2.94605 3.90533V3.90533ZM3.22508 1.72198L3.41327 2.46276L4.53588 2.17684L4.34769 1.43606L3.22508 1.72198V1.72198Z" fill="#FE724C"/>
<path d="M16.5667 35.5964C16.5667 35.5964 16.5213 35.5964 16.5018 35.5964C16.1449 35.5574 15.8853 35.2455 15.9178 34.8881L17.7088 16.9665C17.7477 16.6091 18.0592 16.3492 18.4161 16.3816C18.773 16.4206 19.0325 16.7325 19.0001 17.0899L17.2091 35.0116C17.1767 35.3495 16.8911 35.5964 16.5667 35.5964V35.5964Z" fill="#FE724C"/>
<path d="M2.43994 35.5966C2.109 35.5966 1.82997 35.3497 1.79753 35.0118L5.25759e-05 17.0836C-0.0323928 16.7262 0.22717 16.4078 0.584069 16.3753C0.940968 16.3428 1.25893 16.6027 1.29138 16.9601L3.08236 34.8818C3.11481 35.2392 2.85524 35.5576 2.49834 35.5901C2.47888 35.5901 2.45292 35.5901 2.43345 35.5901L2.43994 35.5966Z" fill="#FE724C"/>
<path d="M9.5 19.4293C7.91667 19.4293 0 19.3189 0 17.0185C0 16.5052 0.356899 16.0763 1.0707 15.7449C1.39515 15.5955 1.78449 15.7319 1.93374 16.0568C2.08299 16.3817 1.94672 16.7716 1.62227 16.9211C1.5444 16.9601 1.47951 16.9925 1.4276 17.025C2.14788 17.4604 4.89276 18.1297 9.5 18.1297C14.1072 18.1297 16.8586 17.4604 17.5789 17.025C17.1766 16.7846 16.002 16.3557 13.4454 16.0958C13.0885 16.0568 12.8289 15.7384 12.8678 15.381C12.9068 15.0236 13.2182 14.7637 13.5816 14.8027C19.013 15.355 19.013 16.6092 19.013 17.0185C19.013 19.3124 11.0963 19.4293 9.51298 19.4293H9.5Z" fill="#FE724C"/>
<path d="M9.49993 37.0001C7.68948 37.0001 1.78442 36.8506 1.78442 34.9467C1.78442 34.5893 2.07643 34.2969 2.43333 34.2969C2.73832 34.2969 2.99788 34.5113 3.06277 34.7972C3.47807 35.1221 5.71031 35.7005 9.49344 35.7005C13.2766 35.7005 15.5153 35.1221 15.9241 34.7972C15.989 34.5113 16.2486 34.2969 16.5535 34.2969C16.9104 34.2969 17.2025 34.5893 17.2025 34.9467C17.2025 36.8506 11.2974 37.0001 9.48695 37.0001H9.49993Z" fill="#FE724C"/>
<path d="M7.02117 22.3404C6.98873 22.3404 6.94979 22.3404 6.91735 22.3339C2.77732 21.6711 0 19.5332 0 17.0185C0 16.6611 0.292008 16.3687 0.648907 16.3687C1.00581 16.3687 1.29781 16.6611 1.29781 17.0185C1.29781 18.8119 3.74419 20.5079 7.125 21.0473C7.4819 21.1057 7.72199 21.4371 7.66359 21.7945C7.61168 22.1129 7.33914 22.3404 7.02117 22.3404Z" fill="#FE724C"/>
<path d="M15.6321 28.4487H8.80565C8.44875 28.4487 8.15674 28.1563 8.15674 27.7989V18.7731C8.15674 18.4157 8.44875 18.1232 8.80565 18.1232C9.16254 18.1232 9.45455 18.4157 9.45455 18.7731V27.1491H14.9832V18.3637C14.9832 18.0063 15.2752 17.7139 15.6321 17.7139C15.989 17.7139 16.2811 18.0063 16.2811 18.3637V27.7989C16.2811 28.1563 15.989 28.4487 15.6321 28.4487Z" fill="#FE724C"/>
</g>
<defs>
<clipPath id="clip0_215_873">
<rect width="19" height="37" fill="white"/>
</clipPath>
</defs>
</svg>
