<svg width="19" height="37" viewBox="0 0 19 37" fill="none" xmlns="http://www.w3.org/2000/svg">
<g clip-path="url(#clip0_215_903)">
<path d="M12.3747 19.3382C12.0827 19.3382 11.8231 19.1433 11.7452 18.8509L10.2528 12.9571C10.1879 12.7102 10.0646 12.4828 9.88937 12.3008L6.35283 8.92834C6.26198 8.84387 6.20358 8.7334 6.17113 8.61644L5.04203 4.17826C4.95119 3.82736 5.16533 3.47646 5.50925 3.38549C5.85966 3.29452 6.21007 3.50896 6.30091 3.85335L7.38459 8.11609L10.8043 11.3781C11.1547 11.742 11.3948 12.1709 11.5116 12.6387L13.0041 18.5325C13.095 18.8834 12.8808 19.2343 12.5369 19.3253C12.485 19.3382 12.4266 19.3447 12.3747 19.3447V19.3382Z" fill="#FE724C"/>
<path d="M3.80262 19.0198C3.51061 19.0198 3.25104 18.8249 3.17318 18.5325L2.27119 14.991C2.15439 14.5232 2.16088 14.0358 2.28417 13.5745L3.73772 9.04531L2.65405 4.78258C2.5632 4.43168 2.77734 4.08078 3.12126 3.98981C3.47167 3.90534 3.82208 4.11327 3.91293 4.45767L5.04203 8.89585C5.07447 9.01282 5.06798 9.13628 5.02905 9.25325L3.52359 13.9319C3.46518 14.1528 3.45869 14.4127 3.52359 14.6596L4.42557 18.2011C4.51641 18.552 4.30227 18.9029 3.95835 18.9939C3.90644 19.0068 3.84804 19.0133 3.79613 19.0133L3.80262 19.0198Z" fill="#FE724C"/>
<path d="M2.94605 3.90534C2.65405 3.90534 2.39448 3.7104 2.31661 3.41799L1.81047 1.41658C1.71962 1.06569 1.93376 0.714791 2.27768 0.623818L4.65917 0.0194973C4.82788 -0.0259892 5.00309 3.10224e-06 5.15234 0.0909761C5.30159 0.181949 5.40541 0.324907 5.45083 0.487358L5.95698 2.48876C6.00241 2.65771 5.97645 2.83316 5.8856 2.98262C5.79475 3.13207 5.652 3.23604 5.48977 3.28153L3.10828 3.88585C3.05637 3.89884 2.99797 3.90534 2.94605 3.90534ZM3.22508 1.72199L3.41327 2.46277L4.53588 2.17686L4.34769 1.43608L3.22508 1.72199Z" fill="#FE724C"/>
<path d="M16.5666 35.5964C16.5666 35.5964 16.5212 35.5964 16.5017 35.5964C16.1448 35.5574 15.8853 35.2455 15.9177 34.8881L17.7087 16.9665C17.7476 16.6091 18.0591 16.3491 18.416 16.3816C18.7729 16.4206 19.0325 16.7325 19 17.0899L17.209 35.0116C17.1766 35.3495 16.8911 35.5964 16.5666 35.5964Z" fill="#FE724C"/>
<path d="M2.43988 35.5964C2.10894 35.5964 1.82991 35.3495 1.79746 35.0116L-8.4592e-06 17.0834C-0.0324538 16.726 0.227109 16.4076 0.584008 16.3751C0.940907 16.3426 1.25887 16.6026 1.29132 16.96L3.0823 34.8816C3.11475 35.239 2.85518 35.5574 2.49828 35.5899C2.47882 35.5899 2.45286 35.5899 2.43339 35.5899L2.43988 35.5964Z" fill="#FE724C"/>
<path d="M9.5 19.4292C7.91667 19.4292 0 19.3188 0 17.0184C0 16.5051 0.356899 16.0762 1.0707 15.7448C1.39515 15.5954 1.78449 15.7318 1.93374 16.0567C2.08299 16.3816 1.94672 16.7715 1.62227 16.921C1.5444 16.96 1.47951 16.9924 1.4276 17.0249C2.14788 17.4603 4.89276 18.1296 9.5 18.1296C14.1072 18.1296 16.8586 17.4603 17.5789 17.0249C17.1766 16.7845 16.002 16.3556 13.4454 16.0957C13.0885 16.0567 12.8289 15.7383 12.8678 15.3809C12.9068 15.0235 13.2182 14.7636 13.5816 14.8026C19.013 15.3549 19.013 16.6091 19.013 17.0184C19.013 19.3123 11.0963 19.4292 9.51298 19.4292H9.5Z" fill="#FE724C"/>
<path d="M9.49999 37C7.68954 37 1.78448 36.8505 1.78448 34.9466C1.78448 34.5892 2.07649 34.2968 2.43339 34.2968C2.73838 34.2968 2.99794 34.5112 3.06283 34.7972C3.47813 35.1221 5.71037 35.7004 9.4935 35.7004C13.2766 35.7004 15.5154 35.1221 15.9242 34.7972C15.9891 34.5112 16.2486 34.2968 16.5536 34.2968C16.9105 34.2968 17.2025 34.5892 17.2025 34.9466C17.2025 36.8505 11.2975 37 9.48701 37H9.49999Z" fill="#FE724C"/>
<path d="M7.02117 22.3404C6.98873 22.3404 6.94979 22.3404 6.91735 22.3339C2.77732 21.6711 0 19.5332 0 17.0184C0 16.6611 0.292008 16.3686 0.648907 16.3686C1.00581 16.3686 1.29781 16.6611 1.29781 17.0184C1.29781 18.8119 3.74419 20.5079 7.125 21.0472C7.4819 21.1057 7.72199 21.4371 7.66359 21.7945C7.61168 22.1129 7.33914 22.3404 7.02117 22.3404Z" fill="#FE724C"/>
<path d="M15.6321 28.4485H8.80565C8.44875 28.4485 8.15674 28.1561 8.15674 27.7987V18.7729C8.15674 18.4155 8.44875 18.1231 8.80565 18.1231C9.16254 18.1231 9.45455 18.4155 9.45455 18.7729V27.1489H14.9832V18.3635C14.9832 18.0061 15.2752 17.7137 15.6321 17.7137C15.989 17.7137 16.2811 18.0061 16.2811 18.3635V27.7987C16.2811 28.1561 15.989 28.4485 15.6321 28.4485Z" fill="#FE724C"/>
</g>
<defs>
<clipPath id="clip0_215_903">
<rect width="19" height="37" fill="white"/>
</clipPath>
</defs>
</svg>
