<svg width="78" height="76" viewBox="0 0 78 76" fill="none" xmlns="http://www.w3.org/2000/svg">
<g filter="url(#filter0_d_215_504)">
<path d="M41 10.1279H27C20.3726 10.1279 15 15.1997 15 21.4559V34.672C15 40.9282 20.3726 46 27 46H41C47.6274 46 53 40.9282 53 34.672V21.4559C53 15.1997 47.6274 10.1279 41 10.1279Z" fill="white"/>
<path d="M27 10.6279H41C47.3788 10.6279 52.5 15.5026 52.5 21.4559V34.672C52.5 40.6253 47.3788 45.5 41 45.5H27C20.6212 45.5 15.5 40.6253 15.5 34.672V21.4559C15.5 15.5026 20.6212 10.6279 27 10.6279Z" stroke="black"/>
</g>
<path d="M37 23.344L32 27.7656L37 32.4856" stroke="black" stroke-width="2" stroke-linecap="round" stroke-linejoin="round"/>
<defs>
<filter id="filter0_d_215_504" x="0" y="0.12793" width="78" height="75.8721" filterUnits="userSpaceOnUse" color-interpolation-filters="sRGB">
<feFlood flood-opacity="0" result="BackgroundImageFix"/>
<feColorMatrix in="SourceAlpha" type="matrix" values="0 0 0 0 0 0 0 0 0 0 0 0 0 0 0 0 0 0 127 0" result="hardAlpha"/>
<feOffset dx="5" dy="10"/>
<feGaussianBlur stdDeviation="10"/>
<feColorMatrix type="matrix" values="0 0 0 0 0.827451 0 0 0 0 0.819608 0 0 0 0 0.847059 0 0 0 0.3 0"/>
<feBlend mode="normal" in2="BackgroundImageFix" result="effect1_dropShadow_215_504"/>
<feBlend mode="normal" in="SourceGraphic" in2="effect1_dropShadow_215_504" result="shape"/>
</filter>
</defs>
</svg>
