<svg width="50" height="51" viewBox="0 0 50 51" fill="none" xmlns="http://www.w3.org/2000/svg">
<path d="M0 38.4742C0.423177 37.4932 1.08724 36.837 2.22786 36.8252C2.56641 36.8213 2.90495 36.8252 3.27995 36.8252C3.44922 35.0419 4.01823 33.4386 5.02083 31.9983C6.02604 30.5529 7.33724 29.4583 8.96094 28.673C8.45833 28.0285 8.16016 27.3293 8.18359 26.5179C8.21354 25.4285 8.69141 24.5819 9.57682 23.9713C9.8125 23.8083 9.91927 23.6791 9.89063 23.3608C9.75912 21.9062 10.5273 20.6134 11.8099 20.0459C13.1003 19.4758 14.5404 19.7785 15.5443 20.8704C15.7669 21.113 15.9388 21.1209 16.2109 21.0022C16.6419 20.8143 17.0859 20.6551 17.5313 20.5051C17.9805 20.3538 18.3828 20.5443 18.5195 20.9461C18.6484 21.327 18.4635 21.6988 18.0339 21.8788C17.6302 22.0484 17.224 22.2167 16.806 22.3472C16.4714 22.4515 16.3841 22.625 16.3815 22.9786C16.3724 24.3105 15.7786 25.3372 14.582 25.936C13.4271 26.5139 12.2813 26.4018 11.2161 25.6634C10.9909 25.5068 10.7995 25.302 10.5911 25.1194C9.88411 25.4742 9.52344 26.1943 9.6888 26.921C9.85938 27.6711 10.5156 28.2125 11.3112 28.2203C12.6458 28.2334 13.9805 28.2216 15.3151 28.2242C16.6823 28.2268 17.4922 29.0278 17.5208 30.3976C17.5299 30.836 17.5091 31.2795 17.5599 31.7139C17.6615 32.5945 18.3919 33.1646 19.3073 33.1163C20.1302 33.0746 20.7786 32.4014 20.8177 31.5548C20.8372 31.1334 20.8164 30.7042 20.8919 30.2933C21.0625 29.3683 21.7943 28.7108 22.7253 28.6978C24.6771 28.6691 26.6315 28.6639 28.5833 28.6991C29.655 28.7187 30.4479 29.5992 30.4648 30.6807C30.474 31.2508 30.4609 31.8196 30.4688 32.3897C30.4818 33.2912 31.1042 33.9239 31.9557 33.9147C32.7813 33.9056 33.388 33.2742 33.3997 32.3949C33.4089 31.6787 33.3958 30.9625 33.4036 30.2463C33.4167 29.1074 34.2747 28.249 35.4128 28.2255C35.4779 28.2242 35.543 28.2203 35.6081 28.2255C36.4128 28.2895 37.0872 28.2073 37.6784 27.4676C38.2943 26.6979 39.2734 26.5205 40.2617 26.604C40.3932 26.0626 40.0912 25.4103 39.4583 25.1141C38.0169 24.441 36.5573 23.8083 35.0911 23.1899C34.9922 23.1482 34.7357 23.3178 34.6406 23.4508C33.1836 25.5055 30.0638 25.2733 29.026 22.9916C28.7669 22.4215 28.7292 21.7497 28.5651 21.0178C27.931 20.9513 27.1771 20.8482 26.4193 20.7986C25.6172 20.7452 25.2578 20.5025 25.2969 19.9624C25.3346 19.4471 25.6966 19.241 26.4883 19.3219C27.3281 19.408 28.1641 19.5397 29.0052 19.6024C29.1992 19.6167 29.4557 19.4771 29.6042 19.3284C31.401 17.5268 34.4128 18.3056 35.0938 20.7582C35.1029 20.7895 35.1172 20.8195 35.125 20.8508C35.263 21.4388 35.6411 21.8301 36.2591 22.0249C36.2995 21.8045 36.3268 21.5879 36.3789 21.3766C36.7096 20.012 37.5234 18.8992 38.3737 17.8399C39.0299 17.0219 40.4154 17.0076 41.0651 17.8229C41.9727 18.9605 42.8646 20.1425 43.1237 21.6427C43.1706 21.9127 43.1693 22.1893 43.194 22.5102C44.9883 22.4241 46.2865 23.5043 47.6406 24.4136C48.6393 25.0841 48.7643 26.5974 47.832 27.3371C46.7448 28.1994 45.6133 29.0539 44.1901 29.3292C43.8425 29.3957 43.4831 29.4049 43.0104 29.4518C43.1055 29.6932 43.1302 29.9789 43.2852 30.1158C45.293 31.8835 46.4271 34.0961 46.7292 36.85C48.1641 36.6648 49.4128 36.9465 49.9987 38.4794V41.4095C49.8854 41.7265 49.7982 42.0565 49.6536 42.3579C48.8594 44.016 47.5339 44.8705 45.6953 44.8405C45.1706 44.8313 44.8763 45.0035 44.599 45.4327C43.9805 46.3877 43.306 47.3061 42.6497 48.2362C41.8112 49.4247 40.6706 50.0065 39.2044 50.0052C29.7331 49.9974 20.2617 49.9961 10.7904 50.0052C9.32292 50.0065 8.1862 49.4195 7.34635 48.2349C6.6888 47.3061 6.01432 46.3877 5.39844 45.4314C5.11979 45.0009 4.82422 44.8378 4.30208 44.8405C2.34245 44.8509 0.804688 43.772 0.21224 42.0448C0.141927 41.8282 0.0716146 41.6156 0 41.4042V38.4742ZM43.2161 44.8496C42.2422 44.8496 41.3997 44.8496 40.5573 44.8496C39.2227 44.8496 37.8893 44.8561 36.5547 44.8444C35.9596 44.8391 35.6276 44.47 35.7422 43.9573C35.8516 43.4654 36.2266 43.3637 36.6719 43.3637C39.7148 43.3676 42.7578 43.3702 45.8008 43.3637C47.1797 43.3611 48.2383 42.4975 48.4675 41.1368C48.5612 40.581 48.5286 40.0031 48.5339 39.4356C48.543 38.482 48.3594 38.3059 47.3919 38.3059C32.4714 38.3059 17.5495 38.3059 2.62891 38.3059C2.48307 38.3059 2.33594 38.3007 2.1901 38.3124C1.72786 38.3516 1.47917 38.6085 1.46615 39.0704C1.45443 39.493 1.48438 39.917 1.45964 40.3397C1.35156 42.2157 2.77734 43.3937 4.46875 43.3859C13.8411 43.3428 23.2135 43.365 32.5859 43.365C32.7643 43.365 32.9466 43.3519 33.1224 43.3767C33.5326 43.4341 33.8138 43.7616 33.7799 44.1503C33.7435 44.5626 33.5052 44.7987 33.0911 44.8365C32.8971 44.8535 32.7005 44.8483 32.5065 44.8483C24.1589 44.8483 15.8112 44.8483 7.46484 44.8483H6.79688C7.38021 45.6845 7.92318 46.4098 8.40886 47.173C9.02865 48.1462 9.88932 48.5441 11.0313 48.5415C17.5729 48.5245 24.1133 48.5324 30.6549 48.5324C33.5026 48.5324 36.3503 48.5324 39.1979 48.5324C39.9844 48.5324 40.7044 48.3158 41.1927 47.6857C41.8776 46.8012 42.4974 45.8658 43.2175 44.847L43.2161 44.8496ZM4.76693 36.8252C5.17708 36.8252 5.54948 36.7991 5.91667 36.833C6.29427 36.867 6.40104 36.7169 6.46354 36.3569C7.0026 33.2794 9.77214 30.9338 12.901 30.8503C13.9727 30.8216 14.9909 31.033 16.0273 31.4765C16.0273 31.1073 16.0286 30.8033 16.0273 30.4981C16.0234 29.8562 15.8659 29.6945 15.2227 29.6919C13.9701 29.6879 12.7135 29.7558 11.4674 29.6697C10.5143 29.6045 9.72266 29.9097 8.94141 30.3585C8.80078 30.4394 8.66146 30.5242 8.52734 30.6155C6.34245 32.0975 5.10677 34.1522 4.76563 36.8252H4.76693ZM42.1094 36.8252C41.9362 35.6798 41.4557 34.747 40.6966 33.9565C40.2578 33.4986 39.793 33.0994 39.1081 33.012C38.7526 32.9663 38.4219 32.7406 38.0768 32.6063C37.8255 32.5071 37.5625 32.3336 37.3138 32.3493C36.6081 32.391 35.9023 32.4928 35.207 32.6193C35.0612 32.6454 34.8854 32.8633 34.8411 33.025C34.4896 34.327 33.6953 35.1358 32.3477 35.385C32.2018 35.4124 32.013 35.5415 31.9583 35.6707C31.8112 36.0229 31.7253 36.4012 31.6042 36.8043H33.2565C33.5859 35.792 33.9753 35.1984 34.625 34.7001C36.6237 33.1724 39.4831 34.0217 40.3581 36.3947C40.4193 36.5591 40.5768 36.7913 40.7109 36.807C41.1576 36.8591 41.6133 36.8265 42.1081 36.8265L42.1094 36.8252ZM27.9961 33.2442C26.3464 32.2031 24.6302 31.9957 22.849 32.7915C21.1263 33.5612 20.1224 34.914 19.7604 36.8017H21.3529C22.0443 34.22 24.9922 33.0094 27.3984 34.764C27.5938 34.267 27.7865 33.7751 27.9961 33.2442ZM7.8763 36.8265C8.33203 36.8265 8.70573 36.8004 9.07552 36.8343C9.41667 36.8657 9.54167 36.7274 9.64974 36.4169C10.2305 34.7444 11.8372 33.7217 13.5742 33.993C14.2513 34.0987 14.8945 34.4274 15.569 34.6609C15.7344 34.2383 15.9258 33.7491 16.1224 33.2429C14.4089 32.1718 12.6497 31.9931 10.8542 32.8437C9.20833 33.6225 8.23698 34.961 7.8776 36.8278L7.8763 36.8265ZM41.8594 26.7005L41.724 26.844C41.8294 27.0501 41.9023 27.281 42.0443 27.4571C42.5234 28.0533 43.1966 27.9894 43.8372 27.8837C44.9857 27.6946 45.8372 26.9066 46.7734 26.3052C47.0872 26.103 47.0156 25.7547 46.6445 25.5107C46.0469 25.1181 45.4505 24.7202 44.8255 24.3745C43.6693 23.7365 42.1771 23.9113 41.2865 24.7515C41.3659 25.1076 41.5755 25.2303 41.9479 25.2172C42.7279 25.1885 43.5104 25.1976 44.2917 25.2133C44.9128 25.225 45.2747 25.6777 45.099 26.2008C44.9622 26.6079 44.6289 26.7018 44.2422 26.7005C43.4479 26.6979 42.6523 26.7005 41.8581 26.7005H41.8594ZM13.1406 21.267C12.138 21.2605 11.3307 22.0549 11.3372 23.0399C11.3438 23.9987 12.1458 24.8011 13.1068 24.8102C14.0924 24.8193 14.9089 24.0079 14.9036 23.0255C14.8971 22.0445 14.125 21.2735 13.1406 21.2683V21.267ZM38.069 29.8719C38.0742 30.8529 38.8633 31.6435 39.8359 31.6409C40.8021 31.6396 41.6042 30.8386 41.6081 29.868C41.6133 28.8635 40.819 28.0794 39.8073 28.0912C38.8151 28.1029 38.0638 28.8713 38.069 29.8719ZM33.7135 21.6153C33.7188 20.6264 32.9518 19.8346 31.9753 19.8202C30.9818 19.8072 30.168 20.6121 30.1706 21.6062C30.1732 22.5859 30.9557 23.3621 31.9427 23.3647C32.9388 23.3673 33.707 22.6081 33.7122 21.6153H33.7135ZM38.9779 23.2538C38.9779 22.565 38.9661 21.9636 38.9818 21.3635C38.9948 20.8234 39.3997 20.4516 39.8503 20.5534C40.2773 20.6512 40.4648 20.9448 40.4635 21.3714C40.4635 22.0289 40.4635 22.6877 40.4635 23.4156C40.6862 23.2917 40.8242 23.216 40.9622 23.1377C41.8125 22.6537 41.9362 22.5898 41.5833 21.6844C41.2005 20.7021 40.6068 19.7941 40.0378 18.8966C39.8268 18.5652 39.4818 18.7244 39.2826 19.0323C38.8958 19.6324 38.4609 20.2142 38.1628 20.8561C37.9375 21.34 37.8789 21.9049 37.7839 22.4411C37.7643 22.5546 37.8789 22.7542 37.9883 22.8155C38.28 22.9812 38.6016 23.0934 38.9792 23.2551L38.9779 23.2538ZM45.2005 36.7704C45.168 35.0654 43.9857 32.6715 42.75 31.6696C42.3776 32.0466 42.0156 32.4119 41.6393 32.7915C42.3724 33.509 43 34.4796 43.3581 35.6185C43.4844 36.0203 43.5091 36.6074 43.7826 36.7717C44.1159 36.9726 44.6628 36.8161 45.1185 36.8135C45.1328 36.8135 45.1471 36.7991 45.2005 36.7704ZM22.3281 31.3656C24.6107 30.5124 26.7435 30.7068 28.7526 31.9592C29.0247 31.6239 29.1185 30.7068 28.888 30.425C28.7813 30.2946 28.569 30.1798 28.4036 30.1785C26.5677 30.1615 24.7305 30.168 22.8932 30.168C22.5391 30.168 22.3503 30.352 22.3307 30.7016C22.319 30.9077 22.3281 31.1138 22.3281 31.3669V31.3656ZM22.9896 36.8265H27.013C26.6771 35.9355 25.918 35.4293 24.9961 35.4306C24.0716 35.4319 23.3125 35.9433 22.9896 36.8265ZM11.1289 36.8265C12.4076 36.8265 13.6406 36.8265 14.875 36.8265C14.9518 36.8265 15.0273 36.8135 15.1094 36.8056C14.8776 36.0046 14.0872 35.4476 13.1875 35.4332C12.2174 35.4189 11.4284 35.9329 11.1302 36.8278L11.1289 36.8265ZM38.8828 36.803C38.5 35.8377 37.6497 35.3484 36.6003 35.4411C35.8099 35.5115 35.0521 36.1194 34.8997 36.8265C36.1224 36.8265 37.3398 36.8265 38.5573 36.8265C38.651 36.8265 38.7461 36.8135 38.8815 36.8043L38.8828 36.803ZM17.3802 34.1313C17.0221 34.9688 16.6966 35.8298 16.7057 36.7965H18.1966C18.4193 36.049 18.6289 35.3419 18.8333 34.6544C18.3672 34.4874 17.9023 34.3191 17.3789 34.1313H17.3802ZM30.0977 36.8017C30.2565 36.1925 30.3984 35.6472 30.5313 35.1397C30.1237 34.7549 29.7292 34.3805 29.3359 34.0074C28.7956 35.0014 28.4857 36.2734 28.6576 36.8017H30.099H30.0977ZM34.905 31.106C35.2044 31.0486 35.5026 30.9847 35.8034 30.9364C36.099 30.8894 36.3958 30.8581 36.6927 30.8203C36.6328 30.4302 36.5781 30.0702 36.526 29.7206C34.9388 29.5914 34.7461 29.7584 34.9063 31.1047L34.905 31.106Z" fill="#FE724C"/>
<path d="M50 9.08107C49.5768 10.0569 48.8268 10.3765 47.7813 10.3608C44.6901 10.3165 41.5977 10.3465 38.5052 10.3452C37.612 10.3452 36.7774 10.5774 36.1224 11.184C34.7214 12.4808 33.082 13.0039 31.2018 12.8682C30.9453 12.8499 30.6849 12.8656 30.405 12.8656C30.362 13.1122 30.332 13.3326 30.2852 13.5492C29.944 15.099 28.237 15.8387 26.8919 15.0051C26.6406 14.8498 26.4844 14.8042 26.2188 14.992C25.6263 15.4121 24.944 15.403 24.2188 15.2347C24.2188 15.703 24.2188 16.1401 24.2188 16.5771C24.2188 18.4478 24.2214 20.3199 24.2188 22.1906C24.2162 23.5461 23.2526 24.5623 21.9688 24.5715C20.7149 24.5806 19.7227 23.5943 19.7005 22.2572C19.6745 20.7112 19.6927 19.1653 19.6927 17.6194C19.6927 14.6581 19.6927 11.6967 19.6927 8.73536C19.6927 8.55663 19.6927 8.3766 19.7149 8.19918C19.7617 7.82347 19.9987 7.61604 20.362 7.58212C20.7266 7.5469 21.0039 7.71519 21.1133 8.06872C21.1732 8.26441 21.1784 8.48358 21.1784 8.69231C21.1823 13.1017 21.181 17.5125 21.181 21.9219C21.181 22.085 21.1667 22.2506 21.1927 22.4098C21.2513 22.7659 21.4597 23.0008 21.8255 23.0542C22.2018 23.109 22.5143 22.9864 22.6589 22.6185C22.7331 22.4294 22.7539 22.2076 22.7539 22.0015C22.7591 15.5256 22.7578 9.04845 22.7578 2.5726C22.7578 2.44214 22.7656 2.31038 22.7461 2.18253C22.681 1.76899 22.3242 1.4572 21.9427 1.46763C21.5222 1.47937 21.194 1.80421 21.1862 2.26603C21.1719 3.12834 21.1823 3.99066 21.1784 4.85298C21.1784 4.99778 21.1823 5.15042 21.1432 5.2874C21.0352 5.65659 20.7839 5.87314 20.3893 5.84705C20 5.82227 19.7227 5.59658 19.7175 5.20651C19.7018 4.06893 19.6472 2.92222 19.7617 1.79508C19.8607 0.831007 20.6055 0.309182 21.4844 0H22.461L23.4844 0.521825C23.8334 0.345709 24.1719 0.172202 24.5117 0C24.8373 0 25.1628 0 25.4883 0L26.5599 0.520521C26.8711 0.354841 27.2057 0.177421 27.5391 0C27.8972 0 28.2552 0 28.6133 0C28.6797 0.0378323 28.7422 0.0847966 28.8125 0.112192C29.8125 0.511389 30.3086 1.26021 30.3555 2.32343C30.362 2.48128 30.3698 2.63913 30.3802 2.84134C30.8112 2.84134 31.2162 2.86091 31.6172 2.83743C33.2591 2.74611 34.6849 3.24967 35.9037 4.35333C36.7149 5.0878 37.6836 5.36958 38.7709 5.36436C41.7956 5.34871 44.8216 5.38654 47.8451 5.34349C48.8828 5.32914 49.599 5.67746 49.9987 6.63892V9.07976L50 9.08107ZM30.3789 11.3588C30.9128 11.3588 31.3998 11.338 31.8841 11.3627C32.9974 11.4201 33.9662 11.0836 34.7904 10.3387C35.987 9.25588 37.3854 8.83581 38.9948 8.8619C41.987 8.91017 44.9805 8.86973 47.9727 8.88277C48.3893 8.88408 48.5781 8.76014 48.5417 8.32442C48.5156 8.01785 48.513 7.70475 48.5417 7.39818C48.586 6.93375 48.3828 6.82026 47.9466 6.82287C44.8568 6.83852 41.7656 6.81634 38.6758 6.83722C37.2604 6.84765 35.9896 6.45498 34.9701 5.4896C33.6406 4.232 32.0521 4.24766 30.3985 4.35985V5.67746C30.8294 5.67746 31.2201 5.67094 31.6094 5.67876C32.1537 5.69051 32.5091 5.99838 32.5026 6.43802C32.4961 6.8607 32.1602 7.15031 31.6354 7.16466C31.2201 7.1764 30.8047 7.16727 30.3919 7.16727V8.5188C30.8164 8.5188 31.2057 8.51228 31.5938 8.5201C32.1458 8.53054 32.4987 8.82537 32.5026 9.26501C32.5065 9.69943 32.1524 10.0047 31.6029 10.0204C31.2018 10.0321 30.8008 10.023 30.3789 10.023V11.3575V11.3588ZM28.862 7.69692C28.862 6.02056 28.862 4.3442 28.862 2.66783C28.862 1.85509 28.586 1.44937 28.0534 1.46763C27.5365 1.4859 27.2878 1.87205 27.2865 2.66392C27.2865 5.99969 27.2865 9.33676 27.2865 12.6725C27.2865 12.8513 27.2852 13.0326 27.3151 13.2074C27.3906 13.6366 27.6706 13.8701 28.0964 13.8597C28.4974 13.8505 28.7643 13.6223 28.832 13.2113C28.8607 13.0365 28.8607 12.8552 28.8607 12.6764C28.862 11.017 28.8607 9.35633 28.8607 7.69692H28.862ZM25.7956 7.70084C25.7956 5.9449 25.7969 4.19026 25.7956 2.43432C25.7956 1.82639 25.4935 1.46242 25.0104 1.46763C24.5378 1.47285 24.2214 1.85378 24.2201 2.44736C24.2175 5.92533 24.2175 9.40329 24.2201 12.8813C24.2201 13.4905 24.5182 13.8545 24.9987 13.8662C25.5026 13.8793 25.7943 13.5192 25.7956 12.8682C25.7982 11.1449 25.7956 9.42286 25.7956 7.69953V7.70084Z" fill="#FE724C"/>
<path d="M30.4402 26.8179C30.4285 27.2641 30.0249 27.6424 29.5783 27.628C29.1173 27.6124 28.7723 27.234 28.7918 26.7618C28.81 26.3104 29.159 25.9778 29.6095 25.9804C30.0626 25.983 30.4507 26.3743 30.4402 26.8179Z" fill="#FE724C"/>
<path d="M19.5325 26.8062C19.5299 27.2732 19.1602 27.6385 18.6992 27.6293C18.2708 27.6202 17.8958 27.2484 17.8841 26.8218C17.8711 26.3744 18.2539 25.9843 18.7083 25.9804C19.1771 25.9765 19.5338 26.3339 19.5325 26.8062Z" fill="#FE724C"/>
<path d="M26.4453 23.5383C25.9857 23.533 25.6094 23.1482 25.625 22.6994C25.6393 22.2728 26.0156 21.8997 26.4427 21.8906C26.8932 21.8802 27.276 22.2611 27.276 22.7203C27.276 23.1925 26.9193 23.5435 26.4466 23.5383H26.4453Z" fill="#FE724C"/>
<path d="M35.6288 26.8088C35.1861 26.8088 34.7876 26.4109 34.7915 25.9713C34.7954 25.5238 35.1887 25.1481 35.6444 25.1585C36.091 25.169 36.4335 25.5134 36.44 25.9635C36.4478 26.4292 36.0845 26.8075 35.6288 26.8088Z" fill="#FE724C"/>
</svg>
