<svg width="61" height="50" viewBox="0 0 61 50" fill="none" xmlns="http://www.w3.org/2000/svg">
<path d="M60 25.9284C59.5695 24.9279 58.8133 24.5318 57.7566 24.6177C56.3085 24.7354 54.8572 24.8165 53.3464 24.9167C53.3464 24.4173 53.3042 23.7842 53.3543 23.1607C53.5045 21.2981 52.7139 19.8825 51.3456 18.7659C50.71 18.2474 50.0055 17.8115 49.3057 17.3821C48.7907 17.0671 48.2944 17.2007 48.0298 17.6493C47.7574 18.109 47.9327 18.6005 48.44 18.9615C49.2353 19.5294 50.0634 20.0654 50.7758 20.7303C51.4678 21.3761 51.8028 22.227 51.4286 23.2148C51.402 23.2832 51.3456 23.3405 51.2736 23.4423C51.1327 23.2673 50.9965 23.1273 50.8948 22.9635C49.9335 21.427 48.5589 20.6746 46.7726 20.7032C46.0415 20.716 45.4216 20.4344 44.8079 20.0479C44.1676 19.6455 43.4646 19.3449 42.8008 18.9806C42.6004 18.8709 42.4235 18.707 42.2513 18.5496C40.9942 17.3948 39.7261 17.2914 38.2998 18.2076C38.1511 18.303 37.8897 18.3555 37.7409 18.2887C36.7249 17.8338 35.6932 17.8084 34.6552 18.1392C33.6627 18.4557 32.7171 18.4223 31.7574 17.9881C30.5957 17.4616 29.3981 17.468 28.238 17.9913C27.2783 18.4239 26.3327 18.4541 25.3402 18.1376C24.3022 17.8068 23.2689 17.8386 22.2544 18.2919C22.1073 18.3587 21.8458 18.2999 21.6971 18.2044C20.3132 17.3121 19.0826 17.4012 17.8302 18.4716C17.528 18.7309 17.1554 18.9091 16.8063 19.1063C16.4666 19.2987 16.0721 19.4133 15.7746 19.655C14.8337 20.4153 13.777 20.7764 12.5824 20.7796C11.1922 20.7812 10.1887 21.5001 9.39339 22.5961C9.18674 22.8792 8.966 23.1528 8.7249 23.4661C8.28811 22.7154 8.30376 21.9805 8.7609 21.3952C9.29789 20.708 9.91942 20.0384 10.6317 19.5517C12.7813 18.0803 15.2376 17.3328 17.7316 16.757C22.6505 15.6213 27.6384 15.2793 32.6748 15.5099C36.7218 15.6944 40.7108 16.2162 44.6075 17.3773C45.1554 17.5411 45.6235 17.293 45.7785 16.7951C45.9288 16.3132 45.6783 15.7962 45.1085 15.6674C42.7539 15.133 40.4055 14.5365 38.0259 14.1611C34.6051 13.6203 31.1421 13.5312 27.6854 13.6712C22.5034 13.8828 17.3887 14.5317 12.5229 16.512C10.9574 17.1498 9.4795 17.9483 8.24427 19.1492C7.175 20.1879 6.56443 21.4142 6.65367 22.9619C6.6928 23.6522 6.65993 24.3473 6.65993 24.9024C5.0521 24.807 3.48654 24.6845 1.91785 24.6336C0.698284 24.5939 0.00943956 25.3383 0.00630845 26.5916C0.00317733 27.923 0.00317733 29.2559 0.00630845 30.5872C0.00943956 31.812 0.676367 32.4673 1.88498 32.5325C3.18596 32.6025 4.49007 32.6805 5.78009 32.8602C6.67089 32.9843 6.65993 33.0638 6.65993 33.9593C6.65993 35.868 6.70533 37.7783 6.64584 39.6839C6.59261 41.381 7.28458 42.6694 8.4932 43.7431C9.86776 44.9647 11.4881 45.7361 13.1726 46.3867C13.7128 46.595 14.2216 46.358 14.386 45.884C14.5582 45.3862 14.3218 44.9599 13.791 44.6863C12.5433 44.0437 11.2642 43.4472 10.0807 42.6965C8.92216 41.9632 8.32255 40.8736 8.41179 39.3848C8.50572 37.8197 8.43214 36.245 8.43214 34.6751C8.43214 34.4842 8.43214 34.2933 8.43214 33.9307C9.04427 34.4365 9.54682 34.8309 10.0243 35.254C10.5754 35.7408 11.0732 35.7853 11.4568 35.3463C11.8325 34.9152 11.7981 34.4142 11.2407 33.9545C10.4564 33.3056 9.61257 32.7345 8.80474 32.1142C8.65288 31.9981 8.45092 31.8104 8.44779 31.6529C8.42274 29.8094 8.43214 27.9659 8.43214 26.1558C9.52176 26.7937 10.5582 27.4951 11.6697 28.0327C14.4376 29.3688 17.3997 30.0639 20.4071 30.5618C24.2333 31.1932 28.0908 31.408 31.9609 31.276C37.027 31.1026 42.0274 30.4822 46.8243 28.6849C48.4995 28.0582 50.0791 27.2533 51.521 26.0333C51.5429 26.2322 51.5726 26.3753 51.5726 26.5185C51.5758 28.1488 51.5648 29.7792 51.582 31.4096C51.5852 31.769 51.4709 31.9536 51.1687 32.1587C50.328 32.7298 49.5092 33.339 48.7296 33.9943C48.1926 34.446 48.1816 34.9757 48.5871 35.3892C48.9691 35.7789 49.4388 35.7392 49.9366 35.3018C50.4314 34.8675 50.9433 34.4524 51.5758 33.9227C51.5758 35.0505 51.5758 35.9953 51.5758 36.9385C51.5758 37.8722 51.5398 38.809 51.5852 39.7411C51.6337 40.7162 51.2595 41.4749 50.6004 42.127C49.5296 43.1848 48.2255 43.856 46.8666 44.4207C43.9421 45.6375 40.8768 46.2769 37.7582 46.7016C34.6161 47.1295 31.4584 47.2456 28.2928 47.1692C24.9519 47.0865 21.6376 46.7461 18.3672 46.0224C18.2905 46.0049 18.2137 45.9938 18.137 45.9795C17.3824 45.8443 16.9723 46.0494 16.847 46.6252C16.7202 47.2058 17.0631 47.5955 17.8224 47.7609C23.2815 48.9523 28.7985 49.2147 34.3546 48.8505C38.5738 48.5753 42.721 47.912 46.7116 46.436C48.404 45.8093 50.018 45.0203 51.4067 43.821C52.7139 42.6917 53.4372 41.327 53.3652 39.5121C53.2869 37.5477 53.3574 35.5769 53.3386 33.6094C53.3355 33.2197 53.4497 33.0065 53.8286 32.962C55.1014 32.8157 56.3742 32.5771 57.6501 32.558C58.7038 32.5421 59.5038 32.278 60.0032 31.3014V25.9331L60 25.9284ZM23.3488 19.7362C23.7903 19.7743 24.3413 19.7282 24.8329 19.8825C26.2404 20.3231 27.5899 20.2658 28.9362 19.6614C29.5609 19.3815 30.231 19.3035 30.8697 19.601C32.3852 20.3056 33.91 20.3072 35.485 19.8236C35.8717 19.7043 36.3241 19.8061 36.6623 19.8061C36.1863 21.1041 35.7182 22.3161 35.3018 23.5488C35.1828 23.9035 35.139 24.1803 34.6756 24.2296C34.2482 24.2741 33.9398 24.6463 34.0243 25.0726C34.0854 25.386 34.375 25.6802 34.6255 25.914C34.7366 26.019 35.0043 25.9968 35.1906 25.9681C35.9593 25.8488 36.7218 25.6866 37.4905 25.5753C38.5535 25.421 39.5773 25.6627 40.6122 25.8918C42.2858 26.2624 43.892 25.615 45.5296 25.4385C45.9586 25.3923 46.1793 24.9947 46.148 24.5509C46.1135 24.0483 45.7895 23.7922 45.3167 23.6888C45.1523 23.6522 44.9081 23.5886 44.8611 23.4709C44.6779 23.0048 44.5574 22.5133 44.4494 22.1507C45.4638 22.297 46.4799 22.4084 47.4803 22.6024C47.9014 22.6835 48.3742 22.8474 48.6764 23.1337C49.2071 23.6395 49.6267 24.2678 50.173 24.9454C49.2368 25.4687 48.4149 26.0031 47.5335 26.4071C43.6431 28.1886 39.4944 28.8598 35.2908 29.2798C34.9276 29.3163 34.7867 29.1716 34.6709 28.8439C34.1402 27.3345 33.4341 25.9252 32.2443 24.8277C31.0983 23.7699 29.6971 23.5838 28.4728 24.306C27.8936 24.6463 27.6932 25.1458 27.9406 25.6293C28.1863 26.1113 28.7139 26.2385 29.3042 25.8981C29.8521 25.5816 30.3546 25.623 30.8274 26.0015C31.9061 26.8684 32.4807 28.0661 32.9989 29.4245H27.0372C27.0967 29.2225 27.1296 29.1127 27.1609 29.0014C27.3347 28.4049 27.1609 27.9309 26.7053 27.7496C26.2028 27.5492 25.7441 27.7782 25.4936 28.3652C25.3652 28.6674 25.2525 28.9775 25.1413 29.2623C24.8924 29.2623 24.6952 29.2893 24.5042 29.2575C22.101 28.8678 19.6807 28.5592 17.301 28.0518C14.9135 27.5428 12.6106 26.7205 10.5394 25.3478C10.3202 25.2031 10.1198 25.0313 9.9022 24.8658C10.328 24.3171 10.6505 23.7747 11.092 23.3691C11.4631 23.0287 11.9484 22.7249 12.429 22.6183C13.456 22.3893 14.5128 22.2986 15.5539 22.1523C15.4192 22.5881 15.2548 23.1257 15.0936 23.649C14.2184 23.7492 13.8161 24.0753 13.8411 24.6416C13.8646 25.211 14.267 25.4798 15.1343 25.5482C15.5022 25.5768 15.8748 25.6214 16.2286 25.7184C17.5406 26.0747 18.8447 26.0683 20.1566 25.7184C21.1758 25.4464 22.1965 25.4814 23.2251 25.7248C23.7903 25.86 24.3758 25.9347 24.955 25.9777C25.5452 26.0206 25.9492 25.6739 25.9993 25.1696C26.0462 24.6909 25.7347 24.3298 25.1852 24.1676C25.0333 24.123 24.8361 23.999 24.7875 23.8638C24.3053 22.5324 23.8482 21.1916 23.3456 19.7409L23.3488 19.7362ZM37.0615 23.8447C37.4607 22.4036 37.9679 21.1725 38.8666 20.1449C39.737 19.1508 40.5057 19.1651 41.348 20.2038C42.2435 21.3045 42.7507 22.6024 43.1296 23.9942C41.074 24.6352 39.1484 23.2355 37.0599 23.8447H37.0615ZM16.7468 24.1167C17.1194 23.1846 17.3496 22.4195 17.719 21.734C18.0885 21.0484 18.5362 20.3851 19.0607 19.8173C19.5914 19.2399 20.1957 19.2701 20.7734 19.7934C21.9335 20.8448 22.4736 22.2477 22.9402 23.8129C21.5562 23.5377 20.3147 23.8431 19.056 24.0928C18.3703 24.228 17.6392 24.1167 16.7484 24.1167H16.7468ZM58.2043 26.4533V30.6731H56.7249V26.4533H58.2043ZM3.25797 26.4453V30.6652H1.79261V26.4453H3.25797ZM53.3464 31.1169C53.3464 29.854 53.3402 28.5878 53.3558 27.3217C53.3558 27.1993 53.4638 27.0068 53.564 26.9702C53.9711 26.8239 54.3938 26.7268 54.8838 26.5916C54.8838 27.5969 54.8838 28.486 54.8838 29.3752C54.8838 30.3603 54.4214 30.9557 53.4967 31.1614C53.4811 31.1646 53.4607 31.1519 53.3464 31.1185V31.1169ZM5.11942 26.5805C5.61257 26.7237 6.02118 26.8271 6.41883 26.967C6.5159 27.002 6.64114 27.1499 6.64114 27.247C6.65523 28.5449 6.65054 29.8428 6.65054 31.1758C6.19183 31.0819 5.8067 31.0278 5.44036 30.9149C5.31198 30.8751 5.13351 30.697 5.13194 30.5777C5.11003 29.275 5.11785 27.9723 5.11785 26.5805H5.11942Z" fill="#FE724C"/>
<path d="M31.6023 6.45779C31.5945 5.05329 31.3142 4.10847 30.8727 3.17479C30.5518 2.4956 30.3749 1.73371 30.2183 0.989307C30.0853 0.356248 29.7941 -0.0191332 29.2602 0.00154457C28.7107 0.023813 28.3772 0.456456 28.4054 1.12769C28.4446 2.07569 28.6857 2.96324 29.1569 3.78558C30.0258 5.3046 29.9898 6.79499 29.1788 8.36173C28.7812 9.1284 28.6027 10.0303 28.432 10.8924C28.2911 11.6066 28.6512 12.0662 29.218 12.1124C29.8019 12.1601 30.0947 11.7752 30.2246 11.0578C30.3498 10.3691 30.5361 9.6708 30.8242 9.03774C31.3612 7.86547 31.5976 7.15129 31.6007 6.4562L31.6023 6.45779Z" fill="#FE724C"/>
<path d="M25.686 5.84229C25.7283 5.01518 25.4026 4.10217 24.9831 3.18599C24.6606 2.48135 24.4711 1.70514 24.3005 0.943243C24.1627 0.330862 23.8934 -0.0158883 23.3768 0.00160827C22.8523 0.0175143 22.5126 0.427889 22.5126 1.06095C22.5126 2.12188 22.8523 3.08419 23.3658 3.99083C23.9279 4.98496 24.0844 6.04748 23.7776 7.14658C23.6414 7.63489 23.3157 8.06754 23.1639 8.55267C22.9087 9.37501 22.6645 10.2101 22.5314 11.0595C22.4328 11.683 22.8382 12.0997 23.3674 12.1204C23.8919 12.1395 24.158 11.8023 24.2989 11.1899C24.4774 10.4089 24.6825 9.61837 25.0034 8.89147C25.5013 7.76373 25.6907 7.19589 25.6844 5.84229H25.686Z" fill="#FE724C"/>
<path d="M37.4873 6.0316C37.4951 5.03748 37.2571 4.10698 36.7765 3.24487C36.3679 2.5116 36.0783 1.7513 36.0704 0.886012C36.0657 0.342027 35.654 -0.0126769 35.1624 0.00163853C34.6552 0.0159539 34.3327 0.369067 34.317 0.941683C34.2935 1.85151 34.4501 2.73111 34.9166 3.51368C35.9358 5.22039 35.9186 6.86985 34.9432 8.62428C34.5425 9.34641 34.4595 10.2737 34.3358 11.1247C34.2481 11.7291 34.6333 12.1045 35.1624 12.1188C35.6806 12.1331 35.9796 11.7562 36.0986 11.182C36.2521 10.4376 36.4258 9.67407 36.7421 8.99171C37.1836 8.04053 37.5092 7.08776 37.4888 6.03001L37.4873 6.0316Z" fill="#FE724C"/>
<path d="M31.4098 21.807C31.3972 22.3192 31.773 22.7136 32.2755 22.7168C32.7561 22.72 33.135 22.3621 33.1585 21.8818C33.1835 21.3775 32.8078 20.9529 32.3209 20.9306C31.8325 20.9083 31.4223 21.3028 31.4098 21.807Z" fill="#FE724C"/>
<path d="M26.1432 22.7105C26.1338 23.1956 26.5502 23.6346 27.023 23.6394C27.5037 23.6441 27.9013 23.2258 27.8982 22.72C27.895 22.2221 27.5491 21.8579 27.0622 21.8404C26.569 21.8229 26.1526 22.2174 26.1432 22.7105Z" fill="#FE724C"/>
</svg>
