<svg width="134" height="152" viewBox="0 0 134 152" fill="none" xmlns="http://www.w3.org/2000/svg">
<g filter="url(#filter0_d_215_1171)">
<path d="M86.3375 82H47.1361C37.0325 82 28.842 89.6112 28.842 99C28.842 108.389 37.0325 116 47.1361 116H86.3375C96.441 116 104.632 108.389 104.632 99C104.632 89.6112 96.441 82 86.3375 82Z" fill="white"/>
</g>
<g filter="url(#filter1_d_215_1171)">
<path d="M86.3375 22H47.1361C37.0325 22 28.842 29.6112 28.842 39C28.842 48.3888 37.0325 56 47.1361 56H86.3375C96.441 56 104.632 48.3888 104.632 39C104.632 29.6112 96.441 22 86.3375 22Z" fill="white"/>
</g>
<defs>
<filter id="filter0_d_215_1171" x="0.440107" y="60.6985" width="132.593" height="90.8039" filterUnits="userSpaceOnUse" color-interpolation-filters="sRGB">
<feFlood flood-opacity="0" result="BackgroundImageFix"/>
<feColorMatrix in="SourceAlpha" type="matrix" values="0 0 0 0 0 0 0 0 0 0 0 0 0 0 0 0 0 0 127 0" result="hardAlpha"/>
<feOffset dy="7.10048"/>
<feGaussianBlur stdDeviation="14.201"/>
<feColorMatrix type="matrix" values="0 0 0 0 0.996078 0 0 0 0 0.447059 0 0 0 0 0.298039 0 0 0 0.2 0"/>
<feBlend mode="normal" in2="BackgroundImageFix" result="effect1_dropShadow_215_1171"/>
<feBlend mode="normal" in="SourceGraphic" in2="effect1_dropShadow_215_1171" result="shape"/>
</filter>
<filter id="filter1_d_215_1171" x="0.440107" y="0.69855" width="132.593" height="90.8039" filterUnits="userSpaceOnUse" color-interpolation-filters="sRGB">
<feFlood flood-opacity="0" result="BackgroundImageFix"/>
<feColorMatrix in="SourceAlpha" type="matrix" values="0 0 0 0 0 0 0 0 0 0 0 0 0 0 0 0 0 0 127 0" result="hardAlpha"/>
<feOffset dy="7.10048"/>
<feGaussianBlur stdDeviation="14.201"/>
<feColorMatrix type="matrix" values="0 0 0 0 0.996078 0 0 0 0 0.447059 0 0 0 0 0.298039 0 0 0 0.2 0"/>
<feBlend mode="normal" in2="BackgroundImageFix" result="effect1_dropShadow_215_1171"/>
<feBlend mode="normal" in="SourceGraphic" in2="effect1_dropShadow_215_1171" result="shape"/>
</filter>
</defs>
</svg>
