<svg width="956" height="935" viewBox="0 0 956 935" fill="none" xmlns="http://www.w3.org/2000/svg">
<g opacity="0.1">
<g clip-path="url(#clip0_270_15937)">
<path d="M795.353 881.602C768.034 879.614 753.677 887.132 739.793 894.405C727.096 901.054 715.099 907.337 691.769 905.639C668.439 903.941 657.479 895.987 645.879 887.57C633.193 878.364 620.076 868.846 592.764 866.858C565.453 864.87 551.096 872.389 537.211 879.662C524.514 886.31 512.518 892.594 489.188 890.896C465.858 889.198 454.898 881.244 443.297 872.827C430.612 863.62 417.495 854.102 390.183 852.114C362.872 850.127 348.515 857.645 334.63 864.918C321.933 871.567 309.937 877.85 286.607 876.152C263.276 874.454 252.316 866.5 240.716 858.083C228.03 848.876 214.913 839.358 187.602 837.371C160.29 835.383 145.933 842.901 132.048 850.174C119.359 856.823 107.37 863.107 84.0393 861.409L83 875.69C110.312 877.677 124.668 870.159 138.553 862.886C151.25 856.237 163.239 849.954 186.57 851.652C209.9 853.349 220.86 861.304 232.46 869.721C245.146 878.927 258.263 888.445 285.574 890.433C312.886 892.42 327.243 884.902 341.128 877.629C353.825 870.981 365.821 864.697 389.151 866.395C412.481 868.093 423.441 876.047 435.042 884.464C447.727 893.671 460.844 903.189 488.156 905.176C515.467 907.164 529.824 899.646 543.709 892.373C556.406 885.724 568.402 879.441 591.732 881.139C615.063 882.837 626.022 890.791 637.623 899.208C650.308 908.414 663.425 917.932 690.737 919.92C718.049 921.908 732.413 914.39 746.297 907.117C758.994 900.468 770.99 894.185 794.321 895.883C817.651 897.581 828.611 905.535 840.211 913.952C852.897 923.158 866.014 932.676 893.325 934.664L894.365 920.384C871.034 918.686 860.075 910.732 848.474 902.315C835.789 893.108 822.672 883.59 795.353 881.602V881.602Z" fill="white"/>
</g>
<g clip-path="url(#clip1_270_15937)">
<path d="M846.847 352.375C819.959 357.6 808.068 368.612 796.568 379.263C786.052 389.001 776.117 398.202 753.154 402.665C730.192 407.128 717.533 402.317 704.136 397.226C689.484 391.658 674.334 385.902 647.453 391.126C620.572 396.35 608.681 407.361 597.182 418.012C586.666 427.75 576.73 436.952 553.768 441.414C530.805 445.877 518.147 441.066 504.749 435.976C490.097 430.407 474.947 424.651 448.067 429.875C421.186 435.099 409.295 446.111 397.795 456.762C387.279 466.499 377.343 475.701 354.381 480.164C331.419 484.626 318.76 479.815 305.362 474.725C290.71 469.157 275.561 463.4 248.68 468.624C221.799 473.849 209.908 484.86 198.408 495.511C187.899 505.247 177.971 514.448 155.008 518.911L157.74 532.966C184.621 527.741 196.512 516.73 208.011 506.079C218.527 496.341 228.456 487.141 251.418 482.678C274.381 478.216 287.039 483.027 300.437 488.117C315.089 493.685 330.239 499.442 357.12 494.218C384 488.993 395.891 477.982 407.391 467.331C417.907 457.593 427.843 448.391 450.805 443.929C473.767 439.466 486.426 444.277 499.824 449.367C514.476 454.936 529.625 460.692 556.506 455.468C583.387 450.244 595.278 439.233 606.778 428.582C617.294 418.844 627.229 409.642 650.192 405.179C673.154 400.717 685.813 405.528 699.211 410.618C713.862 416.187 729.012 421.943 755.893 416.719C782.774 411.495 794.672 400.482 806.171 389.831C816.688 380.093 826.623 370.891 849.585 366.429C872.548 361.966 885.206 366.777 898.604 371.867C913.256 377.436 928.406 383.192 955.287 377.968L952.555 363.913C929.593 368.376 916.934 363.565 903.536 358.474C888.884 352.906 873.735 347.149 846.847 352.375V352.375Z" fill="white"/>
</g>
<g clip-path="url(#clip2_270_15937)">
<path d="M787.398 692.414C760.181 695.493 747.455 705.528 735.148 715.234C723.893 724.108 713.26 732.494 690.016 735.123C666.772 737.752 654.534 731.953 641.582 725.817C627.417 719.105 612.771 712.167 585.561 715.244C558.351 718.322 545.625 728.357 533.317 738.063C522.063 746.937 511.429 755.323 488.186 757.952C464.942 760.581 452.704 754.782 439.752 748.646C425.587 741.934 410.941 734.996 383.731 738.073C356.521 741.151 343.795 751.186 331.487 760.892C320.233 769.766 309.599 778.152 286.356 780.781C263.112 783.41 250.874 777.611 237.922 771.475C223.757 764.763 209.111 757.825 181.901 760.902C154.691 763.98 141.965 774.015 129.657 783.721C118.409 792.594 107.783 800.979 84.5394 803.608L86.1487 817.835C113.359 814.758 126.085 804.723 138.392 795.017C149.647 786.143 160.273 777.758 183.517 775.129C206.761 772.5 218.999 778.299 231.951 784.434C246.116 791.146 260.762 798.085 287.972 795.007C315.182 791.929 327.908 781.895 340.216 772.189C351.47 763.315 362.104 754.929 385.347 752.3C408.591 749.671 420.829 755.47 433.781 761.605C447.946 768.317 462.592 775.256 489.802 772.178C517.012 769.1 529.738 759.066 542.046 749.36C553.3 740.486 563.934 732.1 587.177 729.471C610.421 726.842 622.659 732.64 635.611 738.776C649.776 745.488 664.422 752.427 691.632 749.349C718.842 746.271 731.576 736.236 743.883 726.53C755.138 717.656 765.771 709.27 789.015 706.641C812.258 704.012 824.496 709.811 837.449 715.946C851.613 722.658 866.259 729.597 893.469 726.519L891.86 712.292C868.616 714.921 856.379 709.122 843.426 702.986C829.262 696.274 814.616 689.336 787.398 692.414V692.414Z" fill="white"/>
</g>
<g clip-path="url(#clip3_270_15937)">
<path d="M698.847 565.375C671.959 570.6 660.068 581.612 648.568 592.263C638.052 602.001 628.117 611.202 605.154 615.665C582.192 620.128 569.533 615.317 556.136 610.226C541.484 604.658 526.334 598.902 499.453 604.126C472.572 609.35 460.681 620.361 449.182 631.012C438.666 640.75 428.73 649.952 405.768 654.414C382.805 658.877 370.147 654.066 356.749 648.976C342.097 643.407 326.947 637.651 300.067 642.875C273.186 648.099 261.295 659.111 249.795 669.762C239.279 679.499 229.343 688.701 206.381 693.164C183.419 697.626 170.76 692.815 157.362 687.725C142.71 682.157 127.561 676.4 100.68 681.624C73.7989 686.849 61.9079 697.86 50.4083 708.511C39.899 718.247 29.9706 727.448 7.00825 731.911L9.73975 745.966C36.6206 740.741 48.5116 729.73 60.0112 719.079C70.5274 709.341 80.4559 700.141 103.418 695.678C126.381 691.216 139.039 696.027 152.437 701.117C167.089 706.685 182.239 712.442 209.12 707.218C236 701.993 247.891 690.982 259.391 680.331C269.907 670.593 279.843 661.391 302.805 656.929C325.767 652.466 338.426 657.277 351.824 662.367C366.476 667.936 381.625 673.692 408.506 668.468C435.387 663.244 447.278 652.233 458.778 641.582C469.294 631.844 479.229 622.642 502.192 618.179C525.154 613.717 537.813 618.528 551.211 623.618C565.862 629.187 581.012 634.943 607.893 629.719C634.774 624.495 646.672 613.482 658.171 602.831C668.688 593.093 678.623 583.891 701.585 579.429C724.548 574.966 737.206 579.777 750.604 584.867C765.256 590.436 780.406 596.192 807.287 590.968L804.555 576.913C781.593 581.376 768.934 576.565 755.536 571.474C740.884 565.906 725.735 560.149 698.847 565.375V565.375Z" fill="white"/>
</g>
<g clip-path="url(#clip4_270_15937)">
<path d="M779.847 465.375C752.959 470.6 741.068 481.612 729.568 492.263C719.052 502.001 709.117 511.202 686.154 515.665C663.192 520.128 650.533 515.317 637.136 510.226C622.484 504.658 607.334 498.902 580.453 504.126C553.572 509.35 541.681 520.361 530.182 531.012C519.666 540.75 509.73 549.952 486.768 554.414C463.805 558.877 451.147 554.066 437.749 548.976C423.097 543.407 407.947 537.651 381.067 542.875C354.186 548.099 342.295 559.111 330.795 569.762C320.279 579.499 310.343 588.701 287.381 593.164C264.419 597.626 251.76 592.815 238.362 587.725C223.71 582.157 208.561 576.4 181.68 581.624C154.799 586.849 142.908 597.86 131.408 608.511C120.899 618.247 110.971 627.448 88.0082 631.911L90.7397 645.966C117.621 640.741 129.512 629.73 141.011 619.079C151.527 609.341 161.456 600.141 184.418 595.678C207.381 591.216 220.039 596.027 233.437 601.117C248.089 606.685 263.239 612.442 290.12 607.218C317 601.993 328.891 590.982 340.391 580.331C350.907 570.593 360.843 561.391 383.805 556.929C406.767 552.466 419.426 557.277 432.824 562.367C447.476 567.936 462.625 573.692 489.506 568.468C516.387 563.244 528.278 552.233 539.778 541.582C550.294 531.844 560.229 522.642 583.192 518.179C606.154 513.717 618.813 518.528 632.211 523.618C646.862 529.187 662.012 534.943 688.893 529.719C715.774 524.495 727.672 513.482 739.171 502.831C749.688 493.093 759.623 483.891 782.585 479.429C805.548 474.966 818.206 479.777 831.604 484.867C846.256 490.436 861.406 496.192 888.287 490.968L885.555 476.913C862.593 481.376 849.934 476.565 836.536 471.474C821.884 465.906 806.735 460.149 779.847 465.375V465.375Z" fill="white"/>
</g>
<g clip-path="url(#clip5_270_15937)">
<path d="M779.847 277.375C752.959 282.6 741.068 293.612 729.568 304.263C719.052 314.001 709.117 323.202 686.154 327.665C663.192 332.128 650.533 327.317 637.136 322.226C622.484 316.658 607.334 310.902 580.453 316.126C553.572 321.35 541.681 332.361 530.182 343.012C519.666 352.75 509.73 361.952 486.768 366.414C463.805 370.877 451.147 366.066 437.749 360.976C423.097 355.407 407.947 349.651 381.067 354.875C354.186 360.099 342.295 371.111 330.795 381.762C320.279 391.499 310.343 400.701 287.381 405.164C264.419 409.626 251.76 404.815 238.362 399.725C223.71 394.157 208.561 388.4 181.68 393.624C154.799 398.849 142.908 409.86 131.408 420.511C120.899 430.247 110.971 439.448 88.0082 443.911L90.7397 457.966C117.621 452.741 129.512 441.73 141.011 431.079C151.527 421.341 161.456 412.141 184.418 407.678C207.381 403.216 220.039 408.027 233.437 413.117C248.089 418.685 263.239 424.442 290.12 419.218C317 413.993 328.891 402.982 340.391 392.331C350.907 382.593 360.843 373.391 383.805 368.929C406.767 364.466 419.426 369.277 432.824 374.367C447.476 379.936 462.625 385.692 489.506 380.468C516.387 375.244 528.278 364.233 539.778 353.582C550.294 343.844 560.229 334.642 583.192 330.179C606.154 325.717 618.813 330.528 632.211 335.618C646.862 341.187 662.012 346.943 688.893 341.719C715.774 336.495 727.672 325.482 739.171 314.831C749.688 305.093 759.623 295.891 782.585 291.429C805.548 286.966 818.206 291.777 831.604 296.867C846.256 302.436 861.406 308.192 888.287 302.968L885.555 288.913C862.593 293.376 849.934 288.565 836.536 283.474C821.884 277.906 806.735 272.149 779.847 277.375V277.375Z" fill="white"/>
</g>
<g clip-path="url(#clip6_270_15937)">
<path d="M697.846 194.375C670.959 199.6 659.068 210.612 647.568 221.263C637.052 231.001 627.116 240.202 604.154 244.665C581.192 249.128 568.533 244.317 555.135 239.226C540.483 233.658 525.334 227.902 498.453 233.126C471.572 238.35 459.681 249.361 448.181 260.012C437.665 269.75 427.73 278.952 404.767 283.414C381.805 287.877 369.146 283.066 355.748 277.976C341.097 272.407 325.947 266.651 299.066 271.875C272.185 277.099 260.294 288.111 248.795 298.762C238.278 308.499 228.343 317.701 205.381 322.164C182.418 326.626 169.76 321.815 156.362 316.725C141.71 311.157 126.56 305.4 99.6793 310.624C72.7984 315.849 60.9074 326.86 49.4078 337.511C38.8985 347.247 28.9701 356.448 6.00776 360.911L8.73926 374.966C35.6201 369.741 47.5111 358.73 59.0107 348.079C69.527 338.341 79.4554 329.141 102.418 324.678C125.38 320.216 138.039 325.027 151.437 330.117C166.088 335.685 181.238 341.442 208.119 336.218C235 330.993 246.891 319.982 258.39 309.331C268.907 299.593 278.842 290.391 301.804 285.929C324.767 281.466 337.426 286.277 350.823 291.367C365.475 296.936 380.625 302.692 407.506 297.468C434.387 292.244 446.278 281.233 457.777 270.582C468.293 260.844 478.229 251.642 501.191 247.179C524.154 242.717 536.812 247.528 550.21 252.618C564.862 258.187 580.012 263.943 606.892 258.719C633.773 253.495 645.671 242.482 657.171 231.831C667.687 222.093 677.622 212.891 700.585 208.429C723.547 203.966 736.206 208.777 749.604 213.867C764.256 219.436 779.405 225.192 806.286 219.968L803.555 205.913C780.592 210.376 767.934 205.565 754.536 200.474C739.884 194.906 724.734 189.149 697.846 194.375V194.375Z" fill="white"/>
</g>
<g clip-path="url(#clip7_270_15937)">
<path d="M785.258 122.719C758.043 125.821 745.326 135.866 733.027 145.583C721.78 154.467 711.154 162.862 687.912 165.511C664.671 168.161 652.428 162.373 639.47 156.248C625.3 149.548 610.648 142.623 583.44 145.724C556.233 148.825 543.515 158.871 531.216 168.588C519.969 177.472 509.343 185.867 486.102 188.516C462.861 191.165 450.618 185.377 437.66 179.253C423.49 172.553 408.838 165.627 381.63 168.728C354.423 171.83 341.705 181.876 329.406 191.592C318.159 200.476 307.533 208.871 284.292 211.52C261.05 214.17 248.808 208.382 235.85 202.257C221.679 195.557 207.027 188.632 179.82 191.733C152.612 194.834 139.895 204.88 127.596 214.597C116.356 223.48 105.737 231.874 82.4956 234.523L84.1172 248.749C111.325 245.648 124.042 235.602 136.341 225.885C147.588 217.002 158.207 208.607 181.449 205.958C204.69 203.309 216.933 209.097 229.891 215.221C244.061 221.921 258.713 228.847 285.92 225.746C313.128 222.644 325.845 212.598 338.144 202.882C349.391 193.998 360.017 185.603 383.259 182.954C406.5 180.304 418.743 186.092 431.701 192.217C445.871 198.917 460.523 205.842 487.731 202.741C514.938 199.64 527.656 189.594 539.955 179.877C551.202 170.993 561.828 162.598 585.069 159.949C608.31 157.3 620.553 163.088 633.511 169.212C647.681 175.912 662.333 182.838 689.541 179.737C716.748 176.635 729.473 166.589 741.772 156.872C753.019 147.988 763.645 139.593 786.886 136.944C810.128 134.294 822.37 140.083 835.328 146.207C849.499 152.907 864.151 159.833 891.358 156.731L889.737 142.505C866.495 145.155 854.252 139.366 841.295 133.242C827.124 126.542 812.472 119.616 785.258 122.719V122.719Z" fill="white"/>
</g>
<g clip-path="url(#clip8_270_15937)">
<path d="M836.09 25.551C808.717 24.5665 794.646 32.6066 781.037 40.384C768.593 47.4941 756.835 54.2134 733.458 53.3726C710.081 52.5319 698.837 44.9854 686.935 36.9997C673.921 28.2648 660.463 19.2346 633.097 18.2504C605.731 17.2662 591.66 25.3063 578.051 33.0837C565.607 40.1938 553.849 46.913 530.472 46.0723C507.095 45.2316 495.851 37.685 483.95 29.6994C470.935 20.9645 457.477 11.9343 430.111 10.95C402.745 9.96583 388.674 18.006 375.065 25.7834C362.621 32.8934 350.863 39.6127 327.486 38.772C304.11 37.9312 292.865 30.3847 280.964 22.399C267.949 13.6641 254.491 4.63392 227.125 3.64971C199.759 2.66549 185.688 10.7056 172.079 18.483C159.642 25.5933 147.891 32.3129 124.515 31.4721L124 45.7809C151.366 46.7651 165.437 38.725 179.046 30.9476C191.49 23.8375 203.241 17.118 226.618 17.9587C249.995 18.7994 261.239 26.346 273.141 34.3317C286.155 43.0666 299.613 52.0968 326.979 53.081C354.345 54.0652 368.416 46.025 382.025 38.2477C394.469 31.1376 406.227 24.4183 429.604 25.259C452.981 26.0998 464.225 33.6463 476.126 41.632C489.141 50.3669 502.599 59.3971 529.965 60.3813C557.331 61.3655 571.402 53.3254 585.011 45.548C597.455 38.4379 609.213 31.7186 632.59 32.5594C655.966 33.4001 667.211 40.9467 679.112 48.9323C692.127 57.6672 705.585 66.6974 732.951 67.6816C760.317 68.6659 774.395 60.626 788.004 52.8486C800.448 45.7385 812.206 39.0192 835.583 39.86C858.959 40.7007 870.204 48.2473 882.105 56.2329C895.12 64.9678 908.578 73.998 935.944 74.9822L936.458 60.6735C913.082 59.8327 901.837 52.2862 889.936 44.3005C876.921 35.5656 863.463 26.5354 836.09 25.551V25.551Z" fill="white"/>
</g>
</g>
<defs>
<clipPath id="clip0_270_15937">
<rect width="812.462" height="45.8104" fill="white" transform="matrix(0.997362 0.0725868 0.0725868 -0.997362 83 875.69)"/>
</clipPath>
<clipPath id="clip1_270_15937">
<rect width="812.462" height="45.8104" fill="white" transform="matrix(0.981634 -0.190774 -0.190774 -0.981634 157.74 532.966)"/>
</clipPath>
<clipPath id="clip2_270_15937">
<rect width="812.462" height="45.8104" fill="white" transform="matrix(0.993664 -0.112393 -0.112393 -0.993664 86.1487 817.835)"/>
</clipPath>
<clipPath id="clip3_270_15937">
<rect width="812.462" height="45.8104" fill="white" transform="matrix(0.981634 -0.190774 -0.190774 -0.981634 9.73975 745.966)"/>
</clipPath>
<clipPath id="clip4_270_15937">
<rect width="812.462" height="45.8104" fill="white" transform="matrix(0.981634 -0.190774 -0.190774 -0.981634 90.7397 645.966)"/>
</clipPath>
<clipPath id="clip5_270_15937">
<rect width="812.462" height="45.8104" fill="white" transform="matrix(0.981634 -0.190774 -0.190774 -0.981634 90.7397 457.966)"/>
</clipPath>
<clipPath id="clip6_270_15937">
<rect width="812.462" height="45.8104" fill="white" transform="matrix(0.981634 -0.190774 -0.190774 -0.981634 8.73926 374.966)"/>
</clipPath>
<clipPath id="clip7_270_15937">
<rect width="812.462" height="45.8104" fill="white" transform="matrix(0.993566 -0.113257 -0.113257 -0.993566 84.1172 248.749)"/>
</clipPath>
<clipPath id="clip8_270_15937">
<rect width="812.462" height="45.8104" fill="white" transform="matrix(0.999354 0.0359415 0.0359415 -0.999354 124 45.7809)"/>
</clipPath>
</defs>
</svg>
