<svg width="114" height="140" viewBox="0 0 114 140" fill="none" xmlns="http://www.w3.org/2000/svg">
<path d="M0 18.2143C0 8.15481 8.15481 0 18.2143 0H95.7857C105.845 0 114 8.15481 114 18.2143V121.786C114 131.845 105.845 140 95.7857 140H18.2143C8.15481 140 0 131.845 0 121.786V18.2143Z" fill="white"/>
<path d="M31.072 118.816C31.072 119.413 30.9173 119.963 30.608 120.464C30.3093 120.965 29.8613 121.365 29.264 121.664C28.6773 121.963 27.9627 122.112 27.12 122.112C25.8507 122.112 24.8053 121.803 23.984 121.184C23.1627 120.565 22.7147 119.701 22.64 118.592H25.552C25.5947 119.019 25.744 119.355 26 119.6C26.2667 119.845 26.6027 119.968 27.008 119.968C27.36 119.968 27.6373 119.872 27.84 119.68C28.0427 119.488 28.144 119.232 28.144 118.912C28.144 118.624 28.048 118.384 27.856 118.192C27.6747 118 27.4453 117.845 27.168 117.728C26.8907 117.6 26.5067 117.451 26.016 117.28C25.3013 117.035 24.7147 116.8 24.256 116.576C23.808 116.341 23.4187 116 23.088 115.552C22.768 115.093 22.608 114.501 22.608 113.776C22.608 113.104 22.7787 112.523 23.12 112.032C23.4613 111.541 23.9307 111.168 24.528 110.912C25.136 110.645 25.8293 110.512 26.608 110.512C27.8667 110.512 28.864 110.811 29.6 111.408C30.3467 112.005 30.768 112.827 30.864 113.872H27.904C27.8507 113.499 27.712 113.205 27.488 112.992C27.2747 112.768 26.9813 112.656 26.608 112.656C26.288 112.656 26.0267 112.741 25.824 112.912C25.632 113.083 25.536 113.333 25.536 113.664C25.536 113.931 25.6213 114.16 25.792 114.352C25.9733 114.533 26.1973 114.683 26.464 114.8C26.7307 114.917 27.1147 115.067 27.616 115.248C28.3413 115.493 28.9333 115.739 29.392 115.984C29.8507 116.219 30.2453 116.565 30.576 117.024C30.9067 117.483 31.072 118.08 31.072 118.816Z" fill="#FE724C"/>
<path d="M38.1526 112.96C38.8886 112.96 39.5446 113.147 40.1206 113.52C40.7073 113.883 41.166 114.411 41.4966 115.104C41.838 115.787 42.0086 116.597 42.0086 117.536C42.0086 118.464 41.838 119.275 41.4966 119.968C41.166 120.661 40.7073 121.195 40.1206 121.568C39.5446 121.931 38.8886 122.112 38.1526 122.112C37.47 122.112 36.8833 121.957 36.3926 121.648C35.902 121.339 35.5446 120.917 35.3206 120.384V126.256H32.5846V113.072H35.3206V114.688C35.5446 114.155 35.902 113.733 36.3926 113.424C36.8833 113.115 37.47 112.96 38.1526 112.96ZM37.2726 115.36C36.6966 115.36 36.222 115.557 35.8486 115.952C35.486 116.336 35.3046 116.864 35.3046 117.536C35.3046 118.197 35.486 118.725 35.8486 119.12C36.222 119.515 36.6966 119.712 37.2726 119.712C37.8593 119.712 38.3286 119.52 38.6806 119.136C39.0433 118.752 39.2246 118.219 39.2246 117.536C39.2246 116.853 39.0433 116.32 38.6806 115.936C38.3286 115.552 37.8593 115.36 37.2726 115.36Z" fill="#FE724C"/>
<path d="M51.9084 117.296C51.9084 117.52 51.8817 117.765 51.8284 118.032H45.6364C45.6684 118.704 45.839 119.189 46.1484 119.488C46.4577 119.776 46.8524 119.92 47.3324 119.92C47.7377 119.92 48.0737 119.819 48.3404 119.616C48.607 119.413 48.783 119.152 48.8684 118.832H51.7644C51.647 119.461 51.391 120.027 50.9964 120.528C50.6017 121.019 50.1004 121.408 49.4924 121.696C48.8844 121.973 48.207 122.112 47.4604 122.112C46.5857 122.112 45.807 121.931 45.1244 121.568C44.4524 121.195 43.9244 120.661 43.5404 119.968C43.1564 119.275 42.9644 118.464 42.9644 117.536C42.9644 116.597 43.151 115.787 43.5244 115.104C43.9084 114.411 44.4417 113.883 45.1244 113.52C45.807 113.147 46.5857 112.96 47.4604 112.96C48.3457 112.96 49.1244 113.141 49.7964 113.504C50.4684 113.867 50.9857 114.379 51.3484 115.04C51.7217 115.691 51.9084 116.443 51.9084 117.296ZM49.1404 116.88C49.151 116.293 48.991 115.856 48.6604 115.568C48.3404 115.269 47.9404 115.12 47.4604 115.12C46.959 115.12 46.543 115.269 46.2124 115.568C45.8817 115.867 45.695 116.304 45.6524 116.88H49.1404Z" fill="#FE724C"/>
<path d="M57.3666 112.96C58.5186 112.96 59.484 113.28 60.2626 113.92C61.0413 114.549 61.532 115.419 61.7346 116.528H58.8386C58.7533 116.144 58.5773 115.845 58.3106 115.632C58.044 115.419 57.708 115.312 57.3026 115.312C56.8226 115.312 56.428 115.504 56.1186 115.888C55.8093 116.261 55.6546 116.811 55.6546 117.536C55.6546 118.261 55.8093 118.816 56.1186 119.2C56.428 119.573 56.8226 119.76 57.3026 119.76C57.708 119.76 58.044 119.653 58.3106 119.44C58.5773 119.227 58.7533 118.928 58.8386 118.544H61.7346C61.532 119.653 61.0413 120.528 60.2626 121.168C59.484 121.797 58.5186 122.112 57.3666 122.112C56.492 122.112 55.7133 121.931 55.0306 121.568C54.3586 121.195 53.8306 120.661 53.4466 119.968C53.0626 119.275 52.8706 118.464 52.8706 117.536C52.8706 116.597 53.0573 115.787 53.4306 115.104C53.8146 114.411 54.348 113.883 55.0306 113.52C55.7133 113.147 56.492 112.96 57.3666 112.96Z" fill="#FE724C"/>
<path d="M62.9067 110.56C62.9067 110.144 63.0561 109.803 63.3548 109.536C63.6534 109.259 64.0481 109.12 64.5387 109.12C65.0294 109.12 65.4241 109.259 65.7227 109.536C66.0214 109.803 66.1708 110.144 66.1708 110.56C66.1708 110.965 66.0214 111.307 65.7227 111.584C65.4241 111.851 65.0294 111.984 64.5387 111.984C64.0481 111.984 63.6534 111.851 63.3548 111.584C63.0561 111.307 62.9067 110.965 62.9067 110.56ZM65.8988 113.072V122H63.1628V113.072H65.8988Z" fill="#FE724C"/>
<path d="M71.1797 112.96C71.8624 112.96 72.4491 113.115 72.9398 113.424C73.4304 113.733 73.7931 114.155 74.0277 114.688V113.072H76.7477V122H74.0277V120.384C73.7931 120.917 73.4304 121.339 72.9398 121.648C72.4491 121.957 71.8624 122.112 71.1797 122.112C70.4437 122.112 69.7824 121.931 69.1957 121.568C68.6197 121.195 68.1611 120.661 67.8197 119.968C67.4891 119.275 67.3238 118.464 67.3238 117.536C67.3238 116.597 67.4891 115.787 67.8197 115.104C68.1611 114.411 68.6197 113.883 69.1957 113.52C69.7824 113.147 70.4437 112.96 71.1797 112.96ZM72.0598 115.36C71.4731 115.36 70.9984 115.552 70.6357 115.936C70.2837 116.32 70.1077 116.853 70.1077 117.536C70.1077 118.219 70.2837 118.752 70.6357 119.136C70.9984 119.52 71.4731 119.712 72.0598 119.712C72.6358 119.712 73.1051 119.515 73.4678 119.12C73.8411 118.725 74.0277 118.197 74.0277 117.536C74.0277 116.864 73.8411 116.336 73.4678 115.952C73.1051 115.557 72.6358 115.36 72.0598 115.36Z" fill="#FE724C"/>
<path d="M81.3675 110.16V122H78.6315V110.16H81.3675Z" fill="#FE724C"/>
<path d="M86.5045 112.96C87.6352 112.96 88.5365 113.243 89.2085 113.808C89.8912 114.373 90.3178 115.12 90.4885 116.048H87.9285C87.8538 115.685 87.6832 115.403 87.4165 115.2C87.1605 114.987 86.8352 114.88 86.4405 114.88C86.1312 114.88 85.8965 114.949 85.7365 115.088C85.5765 115.216 85.4965 115.403 85.4965 115.648C85.4965 115.925 85.6405 116.133 85.9285 116.272C86.2272 116.411 86.6912 116.549 87.3205 116.688C88.0032 116.848 88.5632 117.013 89.0005 117.184C89.4378 117.344 89.8165 117.611 90.1365 117.984C90.4565 118.357 90.6165 118.859 90.6165 119.488C90.6165 120 90.4778 120.453 90.2005 120.848C89.9232 121.243 89.5232 121.552 89.0005 121.776C88.4778 122 87.8592 122.112 87.1445 122.112C85.9392 122.112 84.9738 121.845 84.2485 121.312C83.5232 120.779 83.0805 120.016 82.9205 119.024H85.5605C85.6032 119.408 85.7632 119.701 86.0405 119.904C86.3285 120.107 86.6965 120.208 87.1445 120.208C87.4538 120.208 87.6885 120.139 87.8485 120C88.0085 119.851 88.0885 119.659 88.0885 119.424C88.0885 119.115 87.9392 118.896 87.6405 118.768C87.3525 118.629 86.8778 118.485 86.2165 118.336C85.5552 118.197 85.0112 118.048 84.5845 117.888C84.1578 117.728 83.7898 117.472 83.4805 117.12C83.1712 116.757 83.0165 116.267 83.0165 115.648C83.0165 114.848 83.3205 114.203 83.9285 113.712C84.5365 113.211 85.3952 112.96 86.5045 112.96Z" fill="#FE724C"/>
<path d="M40.072 87.84V89.584H47.784V87.84H40.072ZM39.112 90.944V92.72H48.488V90.944H39.112ZM39.464 94.16V95.936H48.328V94.16H39.464ZM42.92 86.4V91.92H44.824V86.4H42.92ZM44.824 92.528V99.264C44.824 99.488 44.744 99.536 44.488 99.536C44.216 99.552 43.336 99.552 42.552 99.52C42.808 100.048 43.064 100.864 43.128 101.424C44.344 101.424 45.256 101.376 45.896 101.088C46.536 100.8 46.728 100.272 46.728 99.296V92.528H44.824ZM40.024 96.8C40.712 97.568 41.528 98.624 41.864 99.328L43.384 98.336C43 97.632 42.152 96.624 41.448 95.92L40.024 96.8ZM33.416 94.944L33.88 96.784C35.576 96.288 37.768 95.632 39.784 94.992L39.528 93.312C37.32 93.936 34.984 94.592 33.416 94.944ZM36.296 86.416V101.44H38.056V86.416H36.296ZM34.184 87.248C34.04 89.136 33.768 91.136 33.256 92.432C33.64 92.624 34.328 93.056 34.616 93.296C35.192 91.856 35.576 89.632 35.784 87.52L34.184 87.248ZM34.616 89.44L34.264 91.264H39.384V89.44H34.616Z" fill="#FE724C"/>
<path d="M52.408 94.32V96.048H61.752V94.32H52.408ZM56.152 91.216V95.2H58.088V91.216H56.152ZM52.312 90.512V92.224H61.176V96.688H63.144V90.512H52.312ZM51.368 90.512V98.336C51.368 100.704 52.28 101.296 55.336 101.296C56.04 101.296 60.024 101.296 60.792 101.296C63.448 101.296 64.136 100.576 64.472 98.112C63.912 98.016 63.08 97.728 62.6 97.424C62.392 99.2 62.136 99.52 60.648 99.52C59.72 99.52 56.136 99.52 55.32 99.52C53.592 99.52 53.304 99.36 53.304 98.32V90.512H51.368ZM54.168 87.504L53.336 89.152H59.064V87.504H54.168ZM53.912 86.336C53.048 88 51.48 89.936 49.304 91.392C49.736 91.696 50.376 92.352 50.68 92.8C53.064 91.024 54.728 88.88 55.992 86.736L53.912 86.336ZM58.2 87.504V87.872C57.864 88.752 57.096 90.096 56.376 90.896C56.744 91.184 57.32 91.776 57.592 92.176C58.536 91.2 59.592 89.632 60.296 88.256L59 87.392L58.632 87.504H58.2Z" fill="#FE724C"/>
<path d="M65.864 87.376V89.056H80.168V87.376H65.864ZM69.384 86.416V90.016H71.336V86.416H69.384ZM74.696 86.416V89.808H76.664V86.416H74.696ZM65.88 95.616V97.312H80.168V95.616H65.88ZM71.96 94.544V101.44H73.976V94.544H71.96ZM71.432 96.384C70.168 97.696 67.704 98.864 65.384 99.424C65.816 99.824 66.408 100.608 66.696 101.104C69.08 100.352 71.528 98.864 73 97.088L71.432 96.384ZM74.504 96.512L73.048 97.12C74.472 98.912 76.84 100.368 79.224 101.072C79.496 100.56 80.088 99.792 80.504 99.392C78.152 98.896 75.752 97.824 74.504 96.512ZM77.896 89.552C75.16 90.16 70.392 90.48 66.264 90.528C66.44 90.944 66.648 91.712 66.696 92.176C70.904 92.16 75.896 91.856 79.416 91.056L77.896 89.552ZM66.952 92.928C67.496 93.648 68.04 94.624 68.232 95.264L69.944 94.576C69.72 93.904 69.128 92.976 68.552 92.288L66.952 92.928ZM71.416 92.56C71.8 93.216 72.152 94.096 72.248 94.656L74.024 94.064C73.912 93.472 73.496 92.656 73.096 92.016L71.416 92.56ZM77.464 91.648C77.112 92.56 76.44 93.808 75.896 94.592L77.4 95.232C77.992 94.512 78.744 93.392 79.432 92.336L77.464 91.648Z" fill="#FE724C"/>
<path d="M83.0001 49.5533C82.697 50.3256 82.2618 50.9763 81.4 51.1807C81.1144 51.2484 80.81 51.2634 80.5145 51.2647C78.822 51.2722 77.1284 51.2684 75.4359 51.2684C75.2551 51.2684 75.0742 51.2684 74.846 51.2684C74.8672 51.4339 74.8822 51.5568 74.8971 51.6797C74.9894 52.3905 74.9046 53.0901 74.3596 53.5778C72.5038 55.2428 70.6555 56.9215 68.7223 58.4925C67.1795 59.7462 65.3038 60.348 63.4068 60.8746C61.4051 61.43 59.4071 61.9879 57.3043 61.8525C56.2804 61.7873 55.2639 61.6218 54.2425 61.5152C52.5076 61.3322 50.7728 61.1918 49.0691 61.7409C48.2772 61.9966 47.6162 62.4467 47.1435 62.9783C47.4253 63.555 47.817 64.0553 47.8943 64.6007C47.9616 65.0771 47.7558 65.6463 47.5251 66.0989C47.2021 66.732 46.7469 67.2974 46.3428 67.8879C45.5059 69.1128 44.3597 69.3398 43.1263 68.5023C40.3513 66.6167 37.5838 64.721 34.8138 62.8279C34.4434 62.5746 34.0642 62.3326 33.7125 62.0556C32.8657 61.3886 32.6399 60.3028 33.1974 59.3751C33.6689 58.5915 34.1815 57.8292 34.7302 57.0996C35.3725 56.2445 36.1832 56.1066 37.4553 56.5467C39.0442 54.8629 40.2428 52.8306 42.1335 51.2709H41.5623C39.2051 51.2709 36.8479 51.2271 34.4932 51.286C32.8482 51.3274 31.8742 50.105 32.0113 48.7785C32.0488 48.4149 31.9939 48.0363 32.0712 47.684C32.292 46.6785 33.1288 46.0153 34.1914 45.9702C34.6554 45.9501 35.1218 45.9501 35.5845 45.9702C35.8851 45.9827 35.9824 45.8711 36.0048 45.574C36.1807 43.1442 36.7644 40.8123 37.7484 38.5882C39.4047 34.842 41.9215 31.7992 45.2677 29.4635C47.9192 27.613 50.8489 26.4307 54.0442 25.928C54.109 25.9179 54.1739 25.9016 54.2362 25.8791C54.2824 25.8628 54.3223 25.8327 54.3173 25.8364C54.1714 25.2936 54.0005 24.777 53.8982 24.2454C53.7523 23.4832 54.0566 22.8588 54.7351 22.5454C55.325 22.2733 55.9848 22.0376 56.6233 22.0151C57.6036 21.9799 58.6201 22.0201 59.5704 22.247C60.9848 22.5842 61.415 23.507 60.9947 24.9037C60.9037 25.2046 60.7677 25.4917 60.6318 25.8364C61.2205 25.9618 61.8129 26.0759 62.4003 26.2163C67.7345 27.4964 71.9825 30.4025 75.1803 34.8721C75.5394 35.3736 75.5145 35.8299 75.1316 36.107C74.7512 36.3828 74.3135 36.2637 73.9543 35.7547C71.8241 32.7332 69.0927 30.4414 65.7278 28.9332C62.3878 27.4362 58.9032 26.8695 55.2527 27.3008C50.0245 27.9189 45.6905 30.2395 42.2632 34.2176C39.5793 37.3319 38.0028 40.9715 37.5738 45.09C37.5464 45.3533 37.5065 45.6166 37.4616 45.9677C38.1874 45.9677 38.8746 45.9589 39.5618 45.9727C39.7901 45.9764 40.0794 45.9601 40.2291 46.0868C40.4311 46.2573 40.6631 46.5795 40.6282 46.7964C40.5895 47.0396 40.2977 47.2791 40.0619 47.4408C39.921 47.5373 39.6753 47.4872 39.477 47.4872C37.8345 47.4897 36.1907 47.4872 34.5481 47.4897C34.1652 47.4897 33.72 47.4621 33.594 47.931C33.4518 48.4576 33.3645 49.0217 33.7075 49.5145C33.7973 49.6423 34.0081 49.705 34.1752 49.7514C34.3137 49.7903 34.472 49.764 34.6217 49.764C49.8736 49.764 65.1254 49.764 80.3773 49.764C80.7739 49.764 81.289 49.8442 81.3912 49.364C81.4973 48.8688 81.4187 48.3234 81.3538 47.8094C81.3389 47.6915 81.0558 47.5699 80.8774 47.5223C80.6741 47.4684 80.4496 47.4884 80.2351 47.4884C68.1536 47.4884 56.0708 47.4884 43.9893 47.4859C43.7574 47.4859 43.5229 47.4859 43.2947 47.4571C42.918 47.4082 42.7022 47.1788 42.6711 46.7964C42.6399 46.4152 42.8082 46.1394 43.1762 46.0379C43.3957 45.9777 43.6339 45.9689 43.8634 45.9689C54.8498 45.9664 65.8363 45.9664 76.8228 45.9664H77.5549C77.4614 45.2254 77.4514 44.5045 77.268 43.8313C76.8378 42.2478 76.3252 40.6869 75.845 39.116C75.8113 39.0044 75.7639 38.8978 75.7315 38.7863C75.6043 38.3525 75.7452 38.0315 76.1518 37.8447C76.5122 37.6792 76.9201 37.8284 77.1047 38.2321C77.3741 38.8214 77.6247 39.4219 77.8393 40.0325C78.4579 41.7977 78.8794 43.6106 79.0016 45.4825C79.0278 45.8786 79.1575 46.0165 79.5367 45.9702C79.7325 45.9463 79.9358 45.9802 80.1328 45.9639C81.486 45.8511 82.49 46.3287 83.0014 47.6552V49.5571L83.0001 49.5533ZM45.7479 62.2524C46.5274 61.3823 47.3917 60.7254 48.448 60.3543C50.4485 59.6497 52.4976 59.8064 54.548 60.0245C55.5196 60.1273 56.4862 60.2991 57.459 60.3517C59.2537 60.4483 60.9648 59.9694 62.6797 59.5017C64.528 58.999 66.3739 58.4649 67.8805 57.2387C69.6839 55.7719 71.3975 54.1934 73.1486 52.6626C73.2097 52.6087 73.2646 52.541 73.3057 52.4708C73.5053 52.1285 73.5003 51.7398 73.2197 51.5092C73.0388 51.3612 72.6746 51.3687 72.4115 51.4151C72.182 51.4565 71.975 51.6421 71.7679 51.78C70.426 52.6689 69.0865 53.564 67.7445 54.4529C67.5662 54.5708 67.3791 54.6961 67.1783 54.7563C64.6764 55.501 62.2107 56.4476 59.5218 56.1718C59.4732 56.1668 59.422 56.1718 59.3721 56.1743C58.9319 56.2082 58.5602 56.0878 58.4343 55.6239C58.307 55.1575 58.5764 54.8717 58.9643 54.6686C59.5954 54.3376 60.2377 54.0241 60.8463 53.6543C61.1007 53.5001 61.3701 53.2581 61.4774 52.9936C61.8054 52.1849 61.0845 51.4878 60.1417 51.6822C58.1973 52.0846 56.2592 52.5172 54.3111 52.8996C53.9057 52.9785 53.4493 52.9672 53.0489 52.867C51.445 52.4645 49.8574 51.9944 48.2535 51.5869C47.6648 51.4364 47.0474 51.2885 46.45 51.3136C44.906 51.3775 43.5179 51.9718 42.4291 53.0538C41.455 54.0216 40.6282 55.14 39.7414 56.1969C39.4034 56.5993 39.0779 57.0118 38.7187 57.4544C41.0772 59.0654 43.3894 60.6464 45.7466 62.2562L45.7479 62.2524ZM46.5024 64.8351C46.3652 64.6646 46.2567 64.4464 46.0821 64.3261C42.9916 62.201 39.8936 60.086 36.7931 57.9747C36.3453 57.67 36.1121 57.7277 35.7966 58.184C35.3987 58.7582 35.0071 59.3362 34.623 59.9192C34.285 60.432 34.3224 60.6526 34.8238 60.9962C37.8918 63.0962 40.9612 65.1937 44.033 67.2861C44.4944 67.6008 44.7414 67.5432 45.0669 67.0718C45.4635 66.4976 45.8526 65.9171 46.2393 65.3353C46.3291 65.1987 46.3927 65.0445 46.5012 64.8351H46.5024ZM62.2519 54.572C64.9758 53.9188 67.5736 53.2518 69.5916 51.2948H62.7096C63.3108 52.4821 63.1623 53.5465 62.2519 54.572ZM57.5101 25.6358C57.6922 25.6358 57.8743 25.6358 58.0564 25.6358C58.9169 25.6421 59.4944 25.1231 59.6029 24.2605C59.6353 23.9997 59.5929 23.8129 59.3085 23.7226C58.1038 23.3377 56.9002 23.3252 55.7054 23.7377C55.577 23.7816 55.426 23.9809 55.4173 24.1163C55.3699 24.9225 56.0771 25.6459 56.8628 25.6371C57.0786 25.6346 57.2931 25.6371 57.5088 25.6371L57.5101 25.6358Z" fill="#FE724C"/>
</svg>
