<svg width="114" height="140" viewBox="0 0 114 140" fill="none" xmlns="http://www.w3.org/2000/svg">
<path d="M0 18.2143C0 8.15481 8.15481 0 18.2143 0H95.7857C105.845 0 114 8.15481 114 18.2143V121.786C114 131.845 105.845 140 95.7857 140H18.2143C8.15481 140 0 131.845 0 121.786V18.2143Z" fill="white"/>
<path d="M37.12 116.32C37.12 117.429 36.88 118.416 36.4 119.28C35.9307 120.133 35.248 120.8 34.352 121.28C33.4667 121.76 32.4213 122 31.216 122H26.944V110.688H31.216C32.432 110.688 33.4827 110.923 34.368 111.392C35.2533 111.861 35.9307 112.523 36.4 113.376C36.88 114.229 37.12 115.211 37.12 116.32ZM30.976 119.552C32.0427 119.552 32.8693 119.269 33.456 118.704C34.0533 118.139 34.352 117.344 34.352 116.32C34.352 115.296 34.0533 114.501 33.456 113.936C32.8693 113.371 32.0427 113.088 30.976 113.088H29.68V119.552H30.976Z" fill="#FE724C"/>
<path d="M47.1584 117.296C47.1584 117.52 47.1317 117.765 47.0784 118.032H40.8864C40.9184 118.704 41.089 119.189 41.3984 119.488C41.7077 119.776 42.1024 119.92 42.5824 119.92C42.9877 119.92 43.3237 119.819 43.5904 119.616C43.857 119.413 44.033 119.152 44.1184 118.832H47.0144C46.897 119.461 46.641 120.027 46.2464 120.528C45.8517 121.019 45.3504 121.408 44.7424 121.696C44.1344 121.973 43.457 122.112 42.7104 122.112C41.8357 122.112 41.057 121.931 40.3744 121.568C39.7024 121.195 39.1744 120.661 38.7904 119.968C38.4064 119.275 38.2144 118.464 38.2144 117.536C38.2144 116.597 38.401 115.787 38.7744 115.104C39.1584 114.411 39.6917 113.883 40.3744 113.52C41.057 113.147 41.8357 112.96 42.7104 112.96C43.5957 112.96 44.3744 113.141 45.0464 113.504C45.7184 113.867 46.2357 114.379 46.5984 115.04C46.9717 115.691 47.1584 116.443 47.1584 117.296ZM44.3904 116.88C44.401 116.293 44.241 115.856 43.9104 115.568C43.5904 115.269 43.1904 115.12 42.7104 115.12C42.209 115.12 41.793 115.269 41.4624 115.568C41.1317 115.867 40.945 116.304 40.9024 116.88H44.3904Z" fill="#FE724C"/>
<path d="M51.8326 112.96C52.9633 112.96 53.8646 113.243 54.5366 113.808C55.2193 114.373 55.646 115.12 55.8166 116.048H53.2566C53.182 115.685 53.0113 115.403 52.7446 115.2C52.4886 114.987 52.1633 114.88 51.7686 114.88C51.4593 114.88 51.2246 114.949 51.0646 115.088C50.9046 115.216 50.8246 115.403 50.8246 115.648C50.8246 115.925 50.9686 116.133 51.2566 116.272C51.5553 116.411 52.0193 116.549 52.6486 116.688C53.3313 116.848 53.8913 117.013 54.3286 117.184C54.766 117.344 55.1446 117.611 55.4646 117.984C55.7846 118.357 55.9446 118.859 55.9446 119.488C55.9446 120 55.806 120.453 55.5286 120.848C55.2513 121.243 54.8513 121.552 54.3286 121.776C53.806 122 53.1873 122.112 52.4726 122.112C51.2673 122.112 50.302 121.845 49.5766 121.312C48.8513 120.779 48.4086 120.016 48.2486 119.024H50.8886C50.9313 119.408 51.0913 119.701 51.3686 119.904C51.6566 120.107 52.0246 120.208 52.4726 120.208C52.782 120.208 53.0166 120.139 53.1766 120C53.3366 119.851 53.4166 119.659 53.4166 119.424C53.4166 119.115 53.2673 118.896 52.9686 118.768C52.6806 118.629 52.206 118.485 51.5446 118.336C50.8833 118.197 50.3393 118.048 49.9126 117.888C49.486 117.728 49.118 117.472 48.8086 117.12C48.4993 116.757 48.3446 116.267 48.3446 115.648C48.3446 114.848 48.6486 114.203 49.2566 113.712C49.8646 113.211 50.7233 112.96 51.8326 112.96Z" fill="#FE724C"/>
<path d="M60.7076 112.96C61.8383 112.96 62.7396 113.243 63.4116 113.808C64.0943 114.373 64.521 115.12 64.6916 116.048H62.1316C62.057 115.685 61.8863 115.403 61.6196 115.2C61.3636 114.987 61.0383 114.88 60.6436 114.88C60.3343 114.88 60.0996 114.949 59.9396 115.088C59.7796 115.216 59.6996 115.403 59.6996 115.648C59.6996 115.925 59.8436 116.133 60.1316 116.272C60.4303 116.411 60.8943 116.549 61.5236 116.688C62.2063 116.848 62.7663 117.013 63.2036 117.184C63.641 117.344 64.0196 117.611 64.3396 117.984C64.6596 118.357 64.8196 118.859 64.8196 119.488C64.8196 120 64.681 120.453 64.4036 120.848C64.1263 121.243 63.7263 121.552 63.2036 121.776C62.681 122 62.0623 122.112 61.3476 122.112C60.1423 122.112 59.177 121.845 58.4516 121.312C57.7263 120.779 57.2836 120.016 57.1236 119.024H59.7636C59.8063 119.408 59.9663 119.701 60.2436 119.904C60.5316 120.107 60.8996 120.208 61.3476 120.208C61.657 120.208 61.8916 120.139 62.0516 120C62.2116 119.851 62.2916 119.659 62.2916 119.424C62.2916 119.115 62.1423 118.896 61.8436 118.768C61.5556 118.629 61.081 118.485 60.4196 118.336C59.7583 118.197 59.2143 118.048 58.7876 117.888C58.361 117.728 57.993 117.472 57.6836 117.12C57.3743 116.757 57.2196 116.267 57.2196 115.648C57.2196 114.848 57.5236 114.203 58.1316 113.712C58.7396 113.211 59.5983 112.96 60.7076 112.96Z" fill="#FE724C"/>
<path d="M74.8146 117.296C74.8146 117.52 74.788 117.765 74.7346 118.032H68.5426C68.5746 118.704 68.7453 119.189 69.0546 119.488C69.364 119.776 69.7586 119.92 70.2386 119.92C70.644 119.92 70.98 119.819 71.2466 119.616C71.5133 119.413 71.6893 119.152 71.7746 118.832H74.6706C74.5533 119.461 74.2973 120.027 73.9026 120.528C73.508 121.019 73.0066 121.408 72.3986 121.696C71.7906 121.973 71.1133 122.112 70.3666 122.112C69.492 122.112 68.7133 121.931 68.0306 121.568C67.3586 121.195 66.8306 120.661 66.4466 119.968C66.0626 119.275 65.8706 118.464 65.8706 117.536C65.8706 116.597 66.0573 115.787 66.4306 115.104C66.8146 114.411 67.348 113.883 68.0306 113.52C68.7133 113.147 69.492 112.96 70.3666 112.96C71.252 112.96 72.0306 113.141 72.7026 113.504C73.3746 113.867 73.892 114.379 74.2546 115.04C74.628 115.691 74.8146 116.443 74.8146 117.296ZM72.0466 116.88C72.0573 116.293 71.8973 115.856 71.5666 115.568C71.2466 115.269 70.8466 115.12 70.3666 115.12C69.8653 115.12 69.4493 115.269 69.1186 115.568C68.788 115.867 68.6013 116.304 68.5586 116.88H72.0466Z" fill="#FE724C"/>
<path d="M78.9769 114.752C79.3182 114.208 79.7555 113.776 80.2889 113.456C80.8329 113.136 81.4195 112.976 82.0489 112.976V115.904H81.2649C80.5395 115.904 79.9742 116.059 79.5689 116.368C79.1742 116.677 78.9769 117.2 78.9769 117.936V122H76.2409V113.072H78.9769V114.752Z" fill="#FE724C"/>
<path d="M88.25 119.648V122H87.018C85.9727 122 85.1567 121.744 84.57 121.232C83.994 120.709 83.706 119.851 83.706 118.656V115.376H82.506V113.072H83.706V110.88H86.442V113.072H88.234V115.376H86.442V118.704C86.442 119.056 86.5113 119.301 86.65 119.44C86.7993 119.579 87.0447 119.648 87.386 119.648H88.25Z" fill="#FE724C"/>
<path d="M42.008 94.736V101.248H43.72V96.448H46.168V100.864H47.976V94.736H42.008ZM46.696 86.416C45.416 86.944 43.288 87.424 41.384 87.696C41.592 88.08 41.864 88.752 41.944 89.184C44.008 88.928 46.408 88.48 48.2 87.808L46.696 86.416ZM44.008 88.256V95.632H45.864V88.256H44.008ZM49.08 86.48V101.44H51V86.48H49.08ZM53.544 86.48V101.376H55.496V86.48H53.544ZM41.464 90.928V92.72H48.248V90.928H41.464ZM47.896 89.296V91.136H56.52V89.296H47.896ZM49.944 94V95.808H54.536V94H49.944ZM49.944 98.752V100.56H54.536V98.752H49.944ZM42.84 98.64V100.352H47.176V98.64H42.84Z" fill="#FE724C"/>
<path d="M63.944 86.416V91.968H65.896V86.416H63.944ZM61.272 92.912H68.632V94.96H61.272V92.912ZM59.448 91.12V96.736H70.584V91.12H59.448ZM64.84 87.824V89.616H71.64V87.824H64.84ZM62.104 97.952C62.296 99.056 62.424 100.48 62.424 101.344L64.376 101.104C64.344 100.256 64.168 98.864 63.928 97.776L62.104 97.952ZM65.4 97.968C65.848 99.024 66.328 100.416 66.488 101.248L68.376 100.784C68.168 99.92 67.64 98.592 67.144 97.584L65.4 97.968ZM68.648 97.872C69.416 98.944 70.28 100.416 70.616 101.328L72.472 100.608C72.072 99.68 71.144 98.272 70.376 97.248L68.648 97.872ZM59.464 97.376C59.016 98.544 58.232 99.824 57.464 100.512L59.24 101.392C60.072 100.512 60.856 99.136 61.304 97.84L59.464 97.376Z" fill="#FE724C"/>
<path d="M76.2165 54.7684C75.9272 56.8811 75.6411 58.9663 75.3582 61.0532C74.8986 64.4367 74.4437 67.8202 73.984 71.2037C73.8105 72.4777 73.6353 73.7502 73.4456 75.021C73.3379 75.7403 73.039 75.9983 72.327 75.9983C61.5201 75.9999 50.7131 75.9999 39.9062 75.9983C39.1909 75.9983 38.8791 75.7419 38.7811 75.029C38.2973 71.5488 37.8248 68.0653 37.3475 64.5834C36.9023 61.3225 36.4571 58.0616 36.0103 54.7861C34.5686 54.6894 33.5448 54.0459 33.1221 52.6396C32.5772 50.8205 33.9369 48.9658 35.8335 48.9594C39.5622 48.9449 43.2926 48.9545 47.0213 48.9545C47.2367 48.9545 47.4521 48.9545 47.6771 48.9545C46.3174 40.5651 51.1294 34.2949 56.6373 31.8774C53.5434 29.5373 47.8715 28.6165 42.9904 31.2436C38.3214 33.7562 34.6023 39.6056 36.3622 46.7661C35.7788 46.9338 35.1922 47.1031 34.4513 47.316C34.2889 46.2258 34.0334 45.192 33.998 44.1518C33.7859 37.7832 36.4153 32.9418 41.8557 29.6357C42.063 29.5099 42.2286 29.2358 42.3106 28.9955C44.2553 23.2477 48.1576 19.6142 54.0642 18.337C61.0636 16.8226 68.2302 20.6109 71.1489 27.2069C71.2502 27.436 71.3514 27.6666 71.4945 27.9923C71.6713 27.7166 71.7998 27.5214 71.922 27.3231C73.4199 24.9201 74.9034 22.5091 76.419 20.119C77.454 18.4853 79.365 17.7145 81.2776 18.0983C83.1838 18.4805 84.5451 19.8158 84.9131 21.7366C85.1832 23.1429 84.8103 24.4073 83.8942 25.5023C80.9931 28.968 78.0873 32.429 75.183 35.8931C75.0689 36.0302 74.9612 36.1721 74.8343 36.3334C75.9465 37.7493 76.8144 39.2798 77.3946 40.9651C78.2978 43.5858 78.4762 46.2613 77.9957 48.99C77.9619 49.1771 78.031 49.4658 78.1628 49.5867C79.1336 50.4834 79.4502 51.5591 79.058 52.8106C78.6948 53.9669 77.6533 54.6749 76.2149 54.7716L76.2165 54.7684ZM72.507 54.7652C72.2836 56.644 71.0541 57.7455 69.3327 57.639C68.0036 57.5568 66.5732 56.3311 66.6937 54.4733C66.7435 53.7121 66.7049 52.9444 66.7017 52.18C66.6985 51.3736 66.3481 50.8995 65.7519 50.8882C65.1508 50.8769 64.7795 51.3543 64.7731 52.1493C64.7715 52.3912 64.7795 52.6332 64.7699 52.8735C64.7216 54.0685 64.1575 54.949 63.0855 55.4457C62.0328 55.9344 61.0315 55.7634 60.0816 55.0942C59.8132 54.9055 59.4451 54.7587 59.1221 54.7587C52.3059 54.7394 45.4896 54.7442 38.6718 54.7442C38.4548 54.7442 38.2379 54.7442 37.9727 54.7442C38.8534 61.2241 39.7261 67.6379 40.5973 74.0453H71.6263C72.499 67.617 73.3701 61.2048 74.246 54.7636H72.507V54.7652ZM55.0028 48.9545C56.5859 48.9545 58.1706 48.9529 59.7537 48.9545C60.5927 48.9561 60.9173 49.2803 60.9222 50.1141C60.927 50.9785 60.9109 51.8445 60.9286 52.709C60.9415 53.3266 61.3352 53.7556 61.8576 53.775C62.3896 53.7927 62.8187 53.3347 62.8508 52.7025C62.8637 52.4622 62.8524 52.2203 62.854 51.9784C62.8605 50.2254 64.0787 48.9513 65.747 48.9545C67.3543 48.9578 68.6143 50.2689 68.624 51.9574C68.6288 52.8622 68.6063 53.7685 68.632 54.6732C68.6529 55.4199 69.2636 55.8731 69.8792 55.6393C70.3807 55.449 70.5558 55.0506 70.5542 54.5442C70.5542 53.096 70.5542 51.6478 70.5542 50.1996C70.5542 49.2497 70.8532 48.9561 71.8191 48.9561C73.0422 48.9561 74.2653 48.9432 75.4868 48.9642C75.8773 48.9707 76.0397 48.8691 76.1072 48.4514C76.3611 46.8886 76.3643 45.3404 76.1088 43.7745C74.9436 36.6301 68.0357 31.5613 60.9415 32.6692C53.3264 33.8578 48.3119 40.8329 49.5881 48.4304C49.6636 48.8771 49.8372 48.9707 50.2486 48.9658C51.8317 48.9432 53.4164 48.9561 54.9996 48.9578L55.0028 48.9545ZM69.1302 31.7887C69.2894 31.5403 69.4661 31.1984 69.704 30.9065C70.1042 30.4147 70.1026 29.9308 69.8953 29.347C68.1498 24.4186 64.7554 21.2673 59.6573 20.2626C54.5013 19.2449 50.1409 20.9109 46.6983 24.9056C45.8239 25.92 45.1393 27.065 44.6635 28.3133C44.7294 28.3633 44.7487 28.3875 44.76 28.3842C44.8966 28.352 45.0316 28.3165 45.1666 28.281C49.9449 27.0086 54.3663 27.7908 58.4037 30.6485C58.8617 30.9727 59.241 31.0259 59.765 30.913C61.6438 30.5098 63.5452 30.4421 65.4304 30.8307C66.6567 31.0823 67.8573 31.4565 69.1302 31.7903V31.7887ZM73.534 34.8238C74.8439 33.2627 76.1602 31.6952 77.4749 30.1276C79.1384 28.1423 80.8292 26.1796 82.4573 24.1654C83.7302 22.5897 82.9057 20.4287 80.9272 20.019C79.7186 19.7691 78.6402 20.2351 77.9507 21.3366C75.6539 25.012 73.3653 28.6939 71.075 32.3741C70.993 32.5064 70.9287 32.6515 70.866 32.7725C71.7677 33.4643 72.6372 34.1336 73.5356 34.8222L73.534 34.8238ZM58.9758 50.8817C58.7508 50.8817 58.574 50.8817 58.3972 50.8817C51.0185 50.8817 43.6381 50.8817 36.2594 50.8817C36.1597 50.8817 36.0585 50.8769 35.9588 50.885C35.3561 50.9285 34.9334 51.3381 34.9431 51.8655C34.9527 52.3703 35.3593 52.7654 35.9283 52.8154C36.0681 52.8267 36.2095 52.8202 36.3494 52.8202C43.6879 52.8202 51.0281 52.8202 58.3667 52.8202C58.5612 52.8202 58.7556 52.8202 58.9758 52.8202V50.8817ZM72.5038 52.8138C73.8105 52.8138 75.0705 52.8315 76.329 52.8057C76.8883 52.7944 77.2949 52.3364 77.2853 51.8365C77.2772 51.3527 76.8915 50.9108 76.3611 50.8979C75.085 50.8688 73.8072 50.8882 72.5038 50.8882V52.8138Z" fill="#FE724C"/>
<path d="M38.786 39.3073H40.7066C40.7066 39.8653 40.7018 40.4169 40.7066 40.97C40.7147 41.7167 41.0875 42.1828 41.6677 42.1844C42.2496 42.1844 42.624 41.7183 42.6337 40.9733C42.6401 40.4717 42.6401 39.9701 42.6449 39.4686C42.6449 39.4331 42.6706 39.3976 42.6964 39.3283H44.6025C44.5447 40.2508 44.6073 41.2039 44.4016 42.0957C44.0834 43.4681 42.6706 44.2922 41.2531 44.1052C39.8773 43.9245 38.8053 42.6989 38.7876 41.2764C38.7796 40.6378 38.7876 39.9992 38.7876 39.3057L38.786 39.3073Z" fill="#FE724C"/>
<path d="M48.3779 33.5338V35.3803H46.528V33.5338H48.3779Z" fill="#FE724C"/>
<path d="M59.0016 60.5775H60.9222C60.9222 61.1629 60.9158 61.7209 60.9238 62.2773C60.9351 62.9756 61.316 63.432 61.8785 63.4369C62.4427 63.4417 62.8364 62.9869 62.8493 62.2918C62.8589 61.7338 62.8509 61.1758 62.8509 60.5824H64.8326C64.7603 61.5371 64.8181 62.5354 64.5803 63.4562C64.2363 64.7899 62.7802 65.5721 61.414 65.3528C60.0559 65.1351 59.0209 63.9288 59.0032 62.5354C58.9952 61.8967 59.0032 61.2581 59.0032 60.5759L59.0016 60.5775Z" fill="#FE724C"/>
<path d="M44.0721 71.0409L42.1467 71.3199C41.7224 68.196 41.3045 65.1286 40.877 61.987C41.5279 61.8967 42.1322 61.8145 42.8024 61.7209C43.2267 64.8416 43.6446 67.909 44.0721 71.0409Z" fill="#FE724C"/>
<path d="M40.5909 59.8566C40.4913 59.1228 40.4077 58.4907 40.3129 57.7891C40.9557 57.6924 41.5568 57.6004 42.2158 57.5004C42.3187 58.1891 42.4151 58.8342 42.526 59.5744C41.8927 59.6663 41.2788 59.755 40.5909 59.855V59.8566Z" fill="#FE724C"/>
<path d="M71.554 38.3526C71.5026 39.2718 71.5652 40.1879 71.3756 41.0458C71.0558 42.4908 69.6285 43.3536 68.1724 43.1359C66.7934 42.9295 65.7551 41.7119 65.7407 40.2766C65.7343 39.6557 65.7407 39.0348 65.7407 38.3284C66.0798 38.3284 66.3916 38.3284 66.7018 38.3284C67.012 38.3284 67.2949 38.3284 67.6613 38.3284C67.6613 38.9283 67.6549 39.4831 67.6613 40.0395C67.671 40.7459 68.0358 41.199 68.5967 41.2184C69.1769 41.2393 69.5771 40.7652 69.5868 40.033C69.5948 39.4928 69.5868 38.9541 69.5868 38.3526H71.554Z" fill="#FE724C"/>
<path d="M59.9884 38.28V36.4286H61.8351V38.28H59.9884Z" fill="#FE724C"/>
<path d="M55.1748 42.1441V40.2959H57.0424V42.1441H55.1748Z" fill="#FE724C"/>
<path d="M55.1861 21.9367H57.0247V23.7929H55.1861V21.9367Z" fill="#FE724C"/>
<path d="M60.9383 27.6586V25.8201H62.8027V27.6586H60.9383Z" fill="#FE724C"/>
</svg>
